<?xml version="1.0" encoding="UTF-8" standalone="no"?>
<!DOCTYPE svg PUBLIC "-//W3C//DTD SVG 1.1//EN"
 "http://www.w3.org/Graphics/SVG/1.1/DTD/svg11.dtd">
<!-- Generated by graphviz version 2.30.1 (20130501.0310)
 -->
<!-- Title: controllers_diagram Pages: 1 -->
<svg width="1120pt" height="1219pt"
 viewBox="0.00 0.00 1119.63 1219.20" xmlns="http://www.w3.org/2000/svg" xmlns:xlink="http://www.w3.org/1999/xlink">
<g id="graph0" class="graph" transform="scale(1 1) rotate(0) translate(4 1215.2)">
<title>controllers_diagram</title>
<polygon fill="white" stroke="white" points="-4,5 -4,-1215.2 1116.63,-1215.2 1116.63,5 -4,5"/>
<!-- _diagram_info -->
<g id="node1" class="node"><title>_diagram_info</title>
<text text-anchor="start" x="8" y="-69" font-family="Times,serif" font-size="13.00">Controllers diagram</text>
<text text-anchor="start" x="8" y="-53.4" font-family="Times,serif" font-size="13.00">Date: May 23 2013 &#45; 12:20</text>
<text text-anchor="start" x="8" y="-37.8" font-family="Times,serif" font-size="13.00">Migration version: 20130523185724</text>
<text text-anchor="start" x="8" y="-22.2" font-family="Times,serif" font-size="13.00">Generated by RailRoady 1.1.0</text>
<text text-anchor="start" x="8" y="-6.6" font-family="Times,serif" font-size="13.00">http://railroady.prestonlee.com</text>
</g>
<!-- ApplicationController -->
<g id="node2" class="node"><title>ApplicationController</title>
<path fill="none" stroke="black" d="M390.661,-402.586C390.661,-402.586 585.607,-402.586 585.607,-402.586 591.607,-402.586 597.607,-408.586 597.607,-414.586 597.607,-414.586 597.607,-556.186 597.607,-556.186 597.607,-562.186 591.607,-568.186 585.607,-568.186 585.607,-568.186 390.661,-568.186 390.661,-568.186 384.661,-568.186 378.661,-562.186 378.661,-556.186 378.661,-556.186 378.661,-414.586 378.661,-414.586 378.661,-408.586 384.661,-402.586 390.661,-402.586"/>
<text text-anchor="middle" x="488.134" y="-550.186" font-family="Times,serif" font-size="14.00">ApplicationController</text>
<polyline fill="none" stroke="black" points="378.661,-543.386 597.607,-543.386 "/>
<text text-anchor="start" x="386.661" y="-525.386" font-family="Times,serif" font-size="14.00">_one_time_conditions_valid_184?</text>
<text text-anchor="start" x="386.661" y="-508.586" font-family="Times,serif" font-size="14.00">after_sign_in_path_for</text>
<text text-anchor="start" x="386.661" y="-491.786" font-family="Times,serif" font-size="14.00">get_selected_pipeline_from_session</text>
<text text-anchor="start" x="386.661" y="-474.986" font-family="Times,serif" font-size="14.00">set_session_pipeline</text>
<text text-anchor="start" x="386.661" y="-458.186" font-family="Times,serif" font-size="14.00">set_session_pipeline_from_params</text>
<polyline fill="none" stroke="black" points="378.661,-451.386 597.607,-451.386 "/>
<polyline fill="none" stroke="black" points="378.661,-427.386 597.607,-427.386 "/>
<text text-anchor="start" x="386.661" y="-409.386" font-family="Times,serif" font-size="14.00">_layout</text>
</g>
<!-- DocumentsController -->
<g id="node4" class="node"><title>DocumentsController</title>
<path fill="none" stroke="black" d="M653.715,-410.88C653.715,-410.88 839.35,-410.88 839.35,-410.88 845.35,-410.88 851.35,-416.88 851.35,-422.88 851.35,-422.88 851.35,-514.08 851.35,-514.08 851.35,-520.08 845.35,-526.08 839.35,-526.08 839.35,-526.08 653.715,-526.08 653.715,-526.08 647.715,-526.08 641.715,-520.08 641.715,-514.08 641.715,-514.08 641.715,-422.88 641.715,-422.88 641.715,-416.88 647.715,-410.88 653.715,-410.88"/>
<text text-anchor="middle" x="746.532" y="-508.08" font-family="Times,serif" font-size="14.00">DocumentsController</text>
<polyline fill="none" stroke="black" points="641.715,-501.28 851.35,-501.28 "/>
<text text-anchor="start" x="649.715" y="-483.28" font-family="Times,serif" font-size="14.00">_one_time_conditions_valid_192?</text>
<text text-anchor="start" x="649.715" y="-466.48" font-family="Times,serif" font-size="14.00">get_file</text>
<polyline fill="none" stroke="black" points="641.715,-459.68 851.35,-459.68 "/>
<polyline fill="none" stroke="black" points="641.715,-435.68 851.35,-435.68 "/>
<text text-anchor="start" x="649.715" y="-417.68" font-family="Times,serif" font-size="14.00">_layout</text>
</g>
<!-- ApplicationController&#45;&gt;DocumentsController -->
<g id="edge1" class="edge"><title>ApplicationController&#45;&gt;DocumentsController</title>
<path fill="none" stroke="black" d="M597.718,-478.216C612.161,-477.271 626.939,-476.304 641.307,-475.364"/>
</g>
<!-- FavoritesController -->
<g id="node5" class="node"><title>FavoritesController</title>
<path fill="none" stroke="black" d="M138.651,-138.787C138.651,-138.787 324.286,-138.787 324.286,-138.787 330.286,-138.787 336.286,-144.787 336.286,-150.787 336.286,-150.787 336.286,-241.987 336.286,-241.987 336.286,-247.987 330.286,-253.987 324.286,-253.987 324.286,-253.987 138.651,-253.987 138.651,-253.987 132.651,-253.987 126.651,-247.987 126.651,-241.987 126.651,-241.987 126.651,-150.787 126.651,-150.787 126.651,-144.787 132.651,-138.787 138.651,-138.787"/>
<text text-anchor="middle" x="231.468" y="-235.987" font-family="Times,serif" font-size="14.00">FavoritesController</text>
<polyline fill="none" stroke="black" points="126.651,-229.187 336.286,-229.187 "/>
<text text-anchor="start" x="134.651" y="-211.187" font-family="Times,serif" font-size="14.00">_one_time_conditions_valid_204?</text>
<text text-anchor="start" x="134.651" y="-194.387" font-family="Times,serif" font-size="14.00">index</text>
<polyline fill="none" stroke="black" points="126.651,-187.587 336.286,-187.587 "/>
<polyline fill="none" stroke="black" points="126.651,-163.587 336.286,-163.587 "/>
<text text-anchor="start" x="134.651" y="-145.587" font-family="Times,serif" font-size="14.00">_layout</text>
</g>
<!-- ApplicationController&#45;&gt;FavoritesController -->
<g id="edge2" class="edge"><title>ApplicationController&#45;&gt;FavoritesController</title>
<path fill="none" stroke="black" d="M414.584,-402.57C372.366,-355.034 320.41,-296.533 282.639,-254.004"/>
</g>
<!-- ItemsController -->
<g id="node6" class="node"><title>ItemsController</title>
<path fill="none" stroke="black" d="M135,-588.534C135,-588.534 320.635,-588.534 320.635,-588.534 326.635,-588.534 332.635,-594.534 332.635,-600.534 332.635,-600.534 332.635,-876.534 332.635,-876.534 332.635,-882.534 326.635,-888.534 320.635,-888.534 320.635,-888.534 135,-888.534 135,-888.534 129,-888.534 123,-882.534 123,-876.534 123,-876.534 123,-600.534 123,-600.534 123,-594.534 129,-588.534 135,-588.534"/>
<text text-anchor="middle" x="227.817" y="-870.534" font-family="Times,serif" font-size="14.00">ItemsController</text>
<polyline fill="none" stroke="black" points="123,-863.734 332.635,-863.734 "/>
<text text-anchor="start" x="131" y="-845.734" font-family="Times,serif" font-size="14.00">_callback_before_331</text>
<text text-anchor="start" x="131" y="-828.934" font-family="Times,serif" font-size="14.00">_one_time_conditions_valid_330?</text>
<text text-anchor="start" x="131" y="-812.134" font-family="Times,serif" font-size="14.00">_one_time_conditions_valid_332?</text>
<text text-anchor="start" x="131" y="-795.334" font-family="Times,serif" font-size="14.00">associate</text>
<text text-anchor="start" x="131" y="-778.534" font-family="Times,serif" font-size="14.00">create</text>
<text text-anchor="start" x="131" y="-761.734" font-family="Times,serif" font-size="14.00">data</text>
<text text-anchor="start" x="131" y="-744.934" font-family="Times,serif" font-size="14.00">destroy</text>
<text text-anchor="start" x="131" y="-728.134" font-family="Times,serif" font-size="14.00">disassociate</text>
<text text-anchor="start" x="131" y="-711.334" font-family="Times,serif" font-size="14.00">edit</text>
<text text-anchor="start" x="131" y="-694.534" font-family="Times,serif" font-size="14.00">index</text>
<text text-anchor="start" x="131" y="-677.734" font-family="Times,serif" font-size="14.00">new</text>
<text text-anchor="start" x="131" y="-660.934" font-family="Times,serif" font-size="14.00">show</text>
<text text-anchor="start" x="131" y="-644.134" font-family="Times,serif" font-size="14.00">update</text>
<polyline fill="none" stroke="black" points="123,-637.334 332.635,-637.334 "/>
<polyline fill="none" stroke="black" points="123,-613.334 332.635,-613.334 "/>
<text text-anchor="start" x="131" y="-595.334" font-family="Times,serif" font-size="14.00">_layout</text>
</g>
<!-- ApplicationController&#45;&gt;ItemsController -->
<g id="edge3" class="edge"><title>ApplicationController&#45;&gt;ItemsController</title>
<path fill="none" stroke="black" d="M402.897,-568.276C380.506,-590.05 356.095,-613.789 332.801,-636.441"/>
</g>
<!-- MembersController -->
<g id="node7" class="node"><title>MembersController</title>
<path fill="none" stroke="black" d="M653.225,-599.693C653.225,-599.693 838.86,-599.693 838.86,-599.693 844.86,-599.693 850.86,-605.693 850.86,-611.693 850.86,-611.693 850.86,-870.893 850.86,-870.893 850.86,-876.893 844.86,-882.893 838.86,-882.893 838.86,-882.893 653.225,-882.893 653.225,-882.893 647.225,-882.893 641.225,-876.893 641.225,-870.893 641.225,-870.893 641.225,-611.693 641.225,-611.693 641.225,-605.693 647.225,-599.693 653.225,-599.693"/>
<text text-anchor="middle" x="746.043" y="-864.893" font-family="Times,serif" font-size="14.00">MembersController</text>
<polyline fill="none" stroke="black" points="641.225,-858.093 850.86,-858.093 "/>
<text text-anchor="start" x="649.225" y="-840.093" font-family="Times,serif" font-size="14.00">_callback_before_373</text>
<text text-anchor="start" x="649.225" y="-823.293" font-family="Times,serif" font-size="14.00">_one_time_conditions_valid_370?</text>
<text text-anchor="start" x="649.225" y="-806.493" font-family="Times,serif" font-size="14.00">_one_time_conditions_valid_374?</text>
<text text-anchor="start" x="649.225" y="-789.693" font-family="Times,serif" font-size="14.00">archive</text>
<text text-anchor="start" x="649.225" y="-772.893" font-family="Times,serif" font-size="14.00">create</text>
<text text-anchor="start" x="649.225" y="-756.093" font-family="Times,serif" font-size="14.00">destroy</text>
<text text-anchor="start" x="649.225" y="-739.293" font-family="Times,serif" font-size="14.00">edit</text>
<text text-anchor="start" x="649.225" y="-722.493" font-family="Times,serif" font-size="14.00">index</text>
<text text-anchor="start" x="649.225" y="-705.693" font-family="Times,serif" font-size="14.00">new</text>
<text text-anchor="start" x="649.225" y="-688.893" font-family="Times,serif" font-size="14.00">show</text>
<text text-anchor="start" x="649.225" y="-672.093" font-family="Times,serif" font-size="14.00">unarchive</text>
<text text-anchor="start" x="649.225" y="-655.293" font-family="Times,serif" font-size="14.00">update</text>
<polyline fill="none" stroke="black" points="641.225,-648.493 850.86,-648.493 "/>
<polyline fill="none" stroke="black" points="641.225,-624.493 850.86,-624.493 "/>
<text text-anchor="start" x="649.225" y="-606.493" font-family="Times,serif" font-size="14.00">_layout</text>
</g>
<!-- ApplicationController&#45;&gt;MembersController -->
<g id="edge4" class="edge"><title>ApplicationController&#45;&gt;MembersController</title>
<path fill="none" stroke="black" d="M571.87,-568.471C593.932,-590.363 618.017,-614.261 641.045,-637.11"/>
</g>
<!-- StatusesController -->
<g id="node12" class="node"><title>StatusesController</title>
<path fill="none" stroke="black" d="M392.729,-609.08C392.729,-609.08 578.364,-609.08 578.364,-609.08 584.364,-609.08 590.364,-615.08 590.364,-621.08 590.364,-621.08 590.364,-880.28 590.364,-880.28 590.364,-886.28 584.364,-892.28 578.364,-892.28 578.364,-892.28 392.729,-892.28 392.729,-892.28 386.729,-892.28 380.729,-886.28 380.729,-880.28 380.729,-880.28 380.729,-621.08 380.729,-621.08 380.729,-615.08 386.729,-609.08 392.729,-609.08"/>
<text text-anchor="middle" x="485.546" y="-874.28" font-family="Times,serif" font-size="14.00">StatusesController</text>
<polyline fill="none" stroke="black" points="380.729,-867.48 590.364,-867.48 "/>
<text text-anchor="start" x="388.729" y="-849.48" font-family="Times,serif" font-size="14.00">_callback_before_571</text>
<text text-anchor="start" x="388.729" y="-832.68" font-family="Times,serif" font-size="14.00">_one_time_conditions_valid_568?</text>
<text text-anchor="start" x="388.729" y="-815.88" font-family="Times,serif" font-size="14.00">_one_time_conditions_valid_572?</text>
<text text-anchor="start" x="388.729" y="-799.08" font-family="Times,serif" font-size="14.00">advance</text>
<text text-anchor="start" x="388.729" y="-782.28" font-family="Times,serif" font-size="14.00">create</text>
<text text-anchor="start" x="388.729" y="-765.48" font-family="Times,serif" font-size="14.00">destroy</text>
<text text-anchor="start" x="388.729" y="-748.68" font-family="Times,serif" font-size="14.00">edit</text>
<text text-anchor="start" x="388.729" y="-731.88" font-family="Times,serif" font-size="14.00">index</text>
<text text-anchor="start" x="388.729" y="-715.08" font-family="Times,serif" font-size="14.00">new</text>
<text text-anchor="start" x="388.729" y="-698.28" font-family="Times,serif" font-size="14.00">ping</text>
<text text-anchor="start" x="388.729" y="-681.48" font-family="Times,serif" font-size="14.00">show</text>
<text text-anchor="start" x="388.729" y="-664.68" font-family="Times,serif" font-size="14.00">update</text>
<polyline fill="none" stroke="black" points="380.729,-657.88 590.364,-657.88 "/>
<polyline fill="none" stroke="black" points="380.729,-633.88 590.364,-633.88 "/>
<text text-anchor="start" x="388.729" y="-615.88" font-family="Times,serif" font-size="14.00">_layout</text>
</g>
<!-- ApplicationController&#45;&gt;StatusesController -->
<g id="edge5" class="edge"><title>ApplicationController&#45;&gt;StatusesController</title>
<path fill="none" stroke="black" d="M487.326,-568.235C487.2,-581.158 487.067,-594.819 486.932,-608.616"/>
</g>
<!-- TriggersController -->
<g id="node13" class="node"><title>TriggersController</title>
<path fill="none" stroke="black" d="M181.935,-363.809C181.935,-363.809 278.422,-363.809 278.422,-363.809 284.422,-363.809 290.422,-369.809 290.422,-375.809 290.422,-375.809 290.422,-551.009 290.422,-551.009 290.422,-557.009 284.422,-563.009 278.422,-563.009 278.422,-563.009 181.935,-563.009 181.935,-563.009 175.935,-563.009 169.935,-557.009 169.935,-551.009 169.935,-551.009 169.935,-375.809 169.935,-375.809 169.935,-369.809 175.935,-363.809 181.935,-363.809"/>
<text text-anchor="middle" x="230.178" y="-545.009" font-family="Times,serif" font-size="14.00">TriggersController</text>
<polyline fill="none" stroke="black" points="169.935,-538.209 290.422,-538.209 "/>
<text text-anchor="start" x="177.935" y="-520.209" font-family="Times,serif" font-size="14.00">create</text>
<text text-anchor="start" x="177.935" y="-503.409" font-family="Times,serif" font-size="14.00">destroy</text>
<text text-anchor="start" x="177.935" y="-486.609" font-family="Times,serif" font-size="14.00">edit</text>
<text text-anchor="start" x="177.935" y="-469.809" font-family="Times,serif" font-size="14.00">index</text>
<text text-anchor="start" x="177.935" y="-453.009" font-family="Times,serif" font-size="14.00">new</text>
<text text-anchor="start" x="177.935" y="-436.209" font-family="Times,serif" font-size="14.00">show</text>
<text text-anchor="start" x="177.935" y="-419.409" font-family="Times,serif" font-size="14.00">update</text>
<polyline fill="none" stroke="black" points="169.935,-412.609 290.422,-412.609 "/>
<polyline fill="none" stroke="black" points="169.935,-388.609 290.422,-388.609 "/>
<text text-anchor="start" x="177.935" y="-370.609" font-family="Times,serif" font-size="14.00">_layout</text>
</g>
<!-- ApplicationController&#45;&gt;TriggersController -->
<g id="edge6" class="edge"><title>ApplicationController&#45;&gt;TriggersController</title>
<path fill="none" stroke="black" d="M378.364,-476.034C348.333,-473.476 316.881,-470.796 290.718,-468.567"/>
</g>
<!-- UsersController -->
<g id="node14" class="node"><title>UsersController</title>
<path fill="none" stroke="black" d="M654.288,-82.5C654.288,-82.5 839.923,-82.5 839.923,-82.5 845.923,-82.5 851.923,-88.5 851.923,-94.5 851.923,-94.5 851.923,-303.3 851.923,-303.3 851.923,-309.3 845.923,-315.3 839.923,-315.3 839.923,-315.3 654.288,-315.3 654.288,-315.3 648.288,-315.3 642.288,-309.3 642.288,-303.3 642.288,-303.3 642.288,-94.5 642.288,-94.5 642.288,-88.5 648.288,-82.5 654.288,-82.5"/>
<text text-anchor="middle" x="747.105" y="-297.3" font-family="Times,serif" font-size="14.00">UsersController</text>
<polyline fill="none" stroke="black" points="642.288,-290.5 851.923,-290.5 "/>
<text text-anchor="start" x="650.288" y="-272.5" font-family="Times,serif" font-size="14.00">_one_time_conditions_valid_586?</text>
<text text-anchor="start" x="650.288" y="-255.7" font-family="Times,serif" font-size="14.00">_one_time_conditions_valid_588?</text>
<text text-anchor="start" x="650.288" y="-238.9" font-family="Times,serif" font-size="14.00">approve</text>
<text text-anchor="start" x="650.288" y="-222.1" font-family="Times,serif" font-size="14.00">deny</text>
<text text-anchor="start" x="650.288" y="-205.3" font-family="Times,serif" font-size="14.00">manage</text>
<text text-anchor="start" x="650.288" y="-188.5" font-family="Times,serif" font-size="14.00">regenerate</text>
<text text-anchor="start" x="650.288" y="-171.7" font-family="Times,serif" font-size="14.00">transfer</text>
<text text-anchor="start" x="650.288" y="-154.9" font-family="Times,serif" font-size="14.00">update</text>
<polyline fill="none" stroke="black" points="642.288,-148.1 851.923,-148.1 "/>
<polyline fill="none" stroke="black" points="642.288,-124.1 851.923,-124.1 "/>
<text text-anchor="start" x="650.288" y="-106.1" font-family="Times,serif" font-size="14.00">_layout</text>
<text text-anchor="start" x="650.288" y="-89.3" font-family="Times,serif" font-size="14.00">load_user</text>
</g>
<!-- ApplicationController&#45;&gt;UsersController -->
<g id="edge7" class="edge"><title>ApplicationController&#45;&gt;UsersController</title>
<path fill="none" stroke="black" d="M563.039,-402.522C587.762,-375.173 615.734,-344.229 642.272,-314.871"/>
</g>
<!-- WelcomeController -->
<g id="node15" class="node"><title>WelcomeController</title>
<path fill="none" stroke="black" d="M397.36,-133.996C397.36,-133.996 582.995,-133.996 582.995,-133.996 588.995,-133.996 594.995,-139.996 594.995,-145.996 594.995,-145.996 594.995,-270.796 594.995,-270.796 594.995,-276.796 588.995,-282.796 582.995,-282.796 582.995,-282.796 397.36,-282.796 397.36,-282.796 391.36,-282.796 385.36,-276.796 385.36,-270.796 385.36,-270.796 385.36,-145.996 385.36,-145.996 385.36,-139.996 391.36,-133.996 397.36,-133.996"/>
<text text-anchor="middle" x="490.177" y="-264.796" font-family="Times,serif" font-size="14.00">WelcomeController</text>
<polyline fill="none" stroke="black" points="385.36,-257.996 594.995,-257.996 "/>
<text text-anchor="start" x="393.36" y="-239.996" font-family="Times,serif" font-size="14.00">_one_time_conditions_valid_592?</text>
<text text-anchor="start" x="393.36" y="-223.196" font-family="Times,serif" font-size="14.00">_one_time_conditions_valid_596?</text>
<text text-anchor="start" x="393.36" y="-206.396" font-family="Times,serif" font-size="14.00">dashboard</text>
<text text-anchor="start" x="393.36" y="-189.596" font-family="Times,serif" font-size="14.00">landing</text>
<polyline fill="none" stroke="black" points="385.36,-182.796 594.995,-182.796 "/>
<polyline fill="none" stroke="black" points="385.36,-158.796 594.995,-158.796 "/>
<text text-anchor="start" x="393.36" y="-140.796" font-family="Times,serif" font-size="14.00">_layout</text>
</g>
<!-- ApplicationController&#45;&gt;WelcomeController -->
<g id="edge8" class="edge"><title>ApplicationController&#45;&gt;WelcomeController</title>
<path fill="none" stroke="black" d="M488.747,-402.28C489.027,-364.354 489.356,-319.792 489.627,-282.96"/>
</g>
<!-- DelayedJobsController -->
<g id="node3" class="node"><title>DelayedJobsController</title>
<path fill="none" stroke="black" d="M340,-943.5C340,-943.5 525.635,-943.5 525.635,-943.5 531.635,-943.5 537.635,-949.5 537.635,-955.5 537.635,-955.5 537.635,-1198.7 537.635,-1198.7 537.635,-1204.7 531.635,-1210.7 525.635,-1210.7 525.635,-1210.7 340,-1210.7 340,-1210.7 334,-1210.7 328,-1204.7 328,-1198.7 328,-1198.7 328,-955.5 328,-955.5 328,-949.5 334,-943.5 340,-943.5"/>
<text text-anchor="middle" x="432.817" y="-1192.7" font-family="Times,serif" font-size="14.00">DelayedJobsController</text>
<polyline fill="none" stroke="black" points="328,-1185.9 537.635,-1185.9 "/>
<text text-anchor="start" x="336" y="-1167.9" font-family="Times,serif" font-size="14.00">_callback_before_189</text>
<text text-anchor="start" x="336" y="-1151.1" font-family="Times,serif" font-size="14.00">_one_time_conditions_valid_186?</text>
<text text-anchor="start" x="336" y="-1134.3" font-family="Times,serif" font-size="14.00">_one_time_conditions_valid_190?</text>
<text text-anchor="start" x="336" y="-1117.5" font-family="Times,serif" font-size="14.00">destroy</text>
<polyline fill="none" stroke="black" points="328,-1110.7 537.635,-1110.7 "/>
<text text-anchor="start" x="336" y="-1092.7" font-family="Times,serif" font-size="14.00">collection_path</text>
<text text-anchor="start" x="336" y="-1075.9" font-family="Times,serif" font-size="14.00">collection_url</text>
<text text-anchor="start" x="336" y="-1059.1" font-family="Times,serif" font-size="14.00">edit_resource_path</text>
<text text-anchor="start" x="336" y="-1042.3" font-family="Times,serif" font-size="14.00">edit_resource_url</text>
<text text-anchor="start" x="336" y="-1025.5" font-family="Times,serif" font-size="14.00">new_resource_path</text>
<text text-anchor="start" x="336" y="-1008.7" font-family="Times,serif" font-size="14.00">new_resource_url</text>
<text text-anchor="start" x="336" y="-991.9" font-family="Times,serif" font-size="14.00">resource_path</text>
<text text-anchor="start" x="336" y="-975.1" font-family="Times,serif" font-size="14.00">resource_url</text>
<polyline fill="none" stroke="black" points="328,-968.3 537.635,-968.3 "/>
<text text-anchor="start" x="336" y="-950.3" font-family="Times,serif" font-size="14.00">_layout</text>
</g>
<!-- NotificationsController -->
<g id="node8" class="node"><title>NotificationsController</title>
<path fill="none" stroke="black" d="M627,-943.5C627,-943.5 812.635,-943.5 812.635,-943.5 818.635,-943.5 824.635,-949.5 824.635,-955.5 824.635,-955.5 824.635,-1181.9 824.635,-1181.9 824.635,-1187.9 818.635,-1193.9 812.635,-1193.9 812.635,-1193.9 627,-1193.9 627,-1193.9 621,-1193.9 615,-1187.9 615,-1181.9 615,-1181.9 615,-955.5 615,-955.5 615,-949.5 621,-943.5 627,-943.5"/>
<text text-anchor="middle" x="719.817" y="-1175.9" font-family="Times,serif" font-size="14.00">NotificationsController</text>
<polyline fill="none" stroke="black" points="615,-1169.1 824.635,-1169.1 "/>
<text text-anchor="start" x="623" y="-1151.1" font-family="Times,serif" font-size="14.00">_callback_before_385</text>
<text text-anchor="start" x="623" y="-1134.3" font-family="Times,serif" font-size="14.00">_one_time_conditions_valid_386?</text>
<text text-anchor="start" x="623" y="-1117.5" font-family="Times,serif" font-size="14.00">index</text>
<polyline fill="none" stroke="black" points="615,-1110.7 824.635,-1110.7 "/>
<text text-anchor="start" x="623" y="-1092.7" font-family="Times,serif" font-size="14.00">collection_path</text>
<text text-anchor="start" x="623" y="-1075.9" font-family="Times,serif" font-size="14.00">collection_url</text>
<text text-anchor="start" x="623" y="-1059.1" font-family="Times,serif" font-size="14.00">edit_resource_path</text>
<text text-anchor="start" x="623" y="-1042.3" font-family="Times,serif" font-size="14.00">edit_resource_url</text>
<text text-anchor="start" x="623" y="-1025.5" font-family="Times,serif" font-size="14.00">new_resource_path</text>
<text text-anchor="start" x="623" y="-1008.7" font-family="Times,serif" font-size="14.00">new_resource_url</text>
<text text-anchor="start" x="623" y="-991.9" font-family="Times,serif" font-size="14.00">resource_path</text>
<text text-anchor="start" x="623" y="-975.1" font-family="Times,serif" font-size="14.00">resource_url</text>
<polyline fill="none" stroke="black" points="615,-968.3 824.635,-968.3 "/>
<text text-anchor="start" x="623" y="-950.3" font-family="Times,serif" font-size="14.00">_layout</text>
</g>
<!-- PipelinesController -->
<g id="node9" class="node"><title>PipelinesController</title>
<path fill="none" stroke="black" d="M914,-82.5C914,-82.5 1099.63,-82.5 1099.63,-82.5 1105.63,-82.5 1111.63,-88.5 1111.63,-94.5 1111.63,-94.5 1111.63,-572.9 1111.63,-572.9 1111.63,-578.9 1105.63,-584.9 1099.63,-584.9 1099.63,-584.9 914,-584.9 914,-584.9 908,-584.9 902,-578.9 902,-572.9 902,-572.9 902,-94.5 902,-94.5 902,-88.5 908,-82.5 914,-82.5"/>
<text text-anchor="middle" x="1006.82" y="-566.9" font-family="Times,serif" font-size="14.00">PipelinesController</text>
<polyline fill="none" stroke="black" points="902,-560.1 1111.63,-560.1 "/>
<text text-anchor="start" x="910" y="-542.1" font-family="Times,serif" font-size="14.00">_callback_before_449</text>
<text text-anchor="start" x="910" y="-525.3" font-family="Times,serif" font-size="14.00">_one_time_conditions_valid_446?</text>
<text text-anchor="start" x="910" y="-508.5" font-family="Times,serif" font-size="14.00">_one_time_conditions_valid_450?</text>
<text text-anchor="start" x="910" y="-491.7" font-family="Times,serif" font-size="14.00">active</text>
<text text-anchor="start" x="910" y="-474.9" font-family="Times,serif" font-size="14.00">batch</text>
<text text-anchor="start" x="910" y="-458.1" font-family="Times,serif" font-size="14.00">create</text>
<text text-anchor="start" x="910" y="-441.3" font-family="Times,serif" font-size="14.00">edit</text>
<text text-anchor="start" x="910" y="-424.5" font-family="Times,serif" font-size="14.00">favorite</text>
<text text-anchor="start" x="910" y="-407.7" font-family="Times,serif" font-size="14.00">index</text>
<text text-anchor="start" x="910" y="-390.9" font-family="Times,serif" font-size="14.00">overview</text>
<text text-anchor="start" x="910" y="-374.1" font-family="Times,serif" font-size="14.00">recent</text>
<text text-anchor="start" x="910" y="-357.3" font-family="Times,serif" font-size="14.00">reorder</text>
<text text-anchor="start" x="910" y="-340.5" font-family="Times,serif" font-size="14.00">reports</text>
<text text-anchor="start" x="910" y="-323.7" font-family="Times,serif" font-size="14.00">statistics</text>
<text text-anchor="start" x="910" y="-306.9" font-family="Times,serif" font-size="14.00">status</text>
<text text-anchor="start" x="910" y="-290.1" font-family="Times,serif" font-size="14.00">submit_batch</text>
<text text-anchor="start" x="910" y="-273.3" font-family="Times,serif" font-size="14.00">unfavorite</text>
<text text-anchor="start" x="910" y="-256.5" font-family="Times,serif" font-size="14.00">update</text>
<polyline fill="none" stroke="black" points="902,-249.7 1111.63,-249.7 "/>
<text text-anchor="start" x="910" y="-231.7" font-family="Times,serif" font-size="14.00">collection_path</text>
<text text-anchor="start" x="910" y="-214.9" font-family="Times,serif" font-size="14.00">collection_url</text>
<text text-anchor="start" x="910" y="-198.1" font-family="Times,serif" font-size="14.00">edit_resource_path</text>
<text text-anchor="start" x="910" y="-181.3" font-family="Times,serif" font-size="14.00">edit_resource_url</text>
<text text-anchor="start" x="910" y="-164.5" font-family="Times,serif" font-size="14.00">new_resource_path</text>
<text text-anchor="start" x="910" y="-147.7" font-family="Times,serif" font-size="14.00">new_resource_url</text>
<text text-anchor="start" x="910" y="-130.9" font-family="Times,serif" font-size="14.00">resource_path</text>
<text text-anchor="start" x="910" y="-114.1" font-family="Times,serif" font-size="14.00">resource_url</text>
<polyline fill="none" stroke="black" points="902,-107.3 1111.63,-107.3 "/>
<text text-anchor="start" x="910" y="-89.3" font-family="Times,serif" font-size="14.00">_layout</text>
</g>
<!-- ServicesController -->
<g id="node10" class="node"><title>ServicesController</title>
<path fill="none" stroke="black" d="M53,-943.5C53,-943.5 238.635,-943.5 238.635,-943.5 244.635,-943.5 250.635,-949.5 250.635,-955.5 250.635,-955.5 250.635,-1198.7 250.635,-1198.7 250.635,-1204.7 244.635,-1210.7 238.635,-1210.7 238.635,-1210.7 53,-1210.7 53,-1210.7 47,-1210.7 41,-1204.7 41,-1198.7 41,-1198.7 41,-955.5 41,-955.5 41,-949.5 47,-943.5 53,-943.5"/>
<text text-anchor="middle" x="145.817" y="-1192.7" font-family="Times,serif" font-size="14.00">ServicesController</text>
<polyline fill="none" stroke="black" points="41,-1185.9 250.635,-1185.9 "/>
<text text-anchor="start" x="49" y="-1167.9" font-family="Times,serif" font-size="14.00">_callback_before_477</text>
<text text-anchor="start" x="49" y="-1151.1" font-family="Times,serif" font-size="14.00">_one_time_conditions_valid_476?</text>
<text text-anchor="start" x="49" y="-1134.3" font-family="Times,serif" font-size="14.00">_one_time_conditions_valid_478?</text>
<text text-anchor="start" x="49" y="-1117.5" font-family="Times,serif" font-size="14.00">index</text>
<polyline fill="none" stroke="black" points="41,-1110.7 250.635,-1110.7 "/>
<text text-anchor="start" x="49" y="-1092.7" font-family="Times,serif" font-size="14.00">collection_path</text>
<text text-anchor="start" x="49" y="-1075.9" font-family="Times,serif" font-size="14.00">collection_url</text>
<text text-anchor="start" x="49" y="-1059.1" font-family="Times,serif" font-size="14.00">edit_resource_path</text>
<text text-anchor="start" x="49" y="-1042.3" font-family="Times,serif" font-size="14.00">edit_resource_url</text>
<text text-anchor="start" x="49" y="-1025.5" font-family="Times,serif" font-size="14.00">new_resource_path</text>
<text text-anchor="start" x="49" y="-1008.7" font-family="Times,serif" font-size="14.00">new_resource_url</text>
<text text-anchor="start" x="49" y="-991.9" font-family="Times,serif" font-size="14.00">resource_path</text>
<text text-anchor="start" x="49" y="-975.1" font-family="Times,serif" font-size="14.00">resource_url</text>
<polyline fill="none" stroke="black" points="41,-968.3 250.635,-968.3 "/>
<text text-anchor="start" x="49" y="-950.3" font-family="Times,serif" font-size="14.00">_layout</text>
</g>
<!-- StagesController -->
<g id="node11" class="node"><title>StagesController</title>
<path fill="none" stroke="black" d="M914,-656.5C914,-656.5 1099.63,-656.5 1099.63,-656.5 1105.63,-656.5 1111.63,-662.5 1111.63,-668.5 1111.63,-668.5 1111.63,-962.1 1111.63,-962.1 1111.63,-968.1 1105.63,-974.1 1099.63,-974.1 1099.63,-974.1 914,-974.1 914,-974.1 908,-974.1 902,-968.1 902,-962.1 902,-962.1 902,-668.5 902,-668.5 902,-662.5 908,-656.5 914,-656.5"/>
<text text-anchor="middle" x="1006.82" y="-956.1" font-family="Times,serif" font-size="14.00">StagesController</text>
<polyline fill="none" stroke="black" points="902,-949.3 1111.63,-949.3 "/>
<text text-anchor="start" x="910" y="-931.3" font-family="Times,serif" font-size="14.00">_callback_before_541</text>
<text text-anchor="start" x="910" y="-914.5" font-family="Times,serif" font-size="14.00">_one_time_conditions_valid_536?</text>
<text text-anchor="start" x="910" y="-897.7" font-family="Times,serif" font-size="14.00">_one_time_conditions_valid_540?</text>
<text text-anchor="start" x="910" y="-880.9" font-family="Times,serif" font-size="14.00">_one_time_conditions_valid_542?</text>
<text text-anchor="start" x="910" y="-864.1" font-family="Times,serif" font-size="14.00">create</text>
<text text-anchor="start" x="910" y="-847.3" font-family="Times,serif" font-size="14.00">new</text>
<text text-anchor="start" x="910" y="-830.5" font-family="Times,serif" font-size="14.00">update</text>
<polyline fill="none" stroke="black" points="902,-823.7 1111.63,-823.7 "/>
<text text-anchor="start" x="910" y="-805.7" font-family="Times,serif" font-size="14.00">collection_path</text>
<text text-anchor="start" x="910" y="-788.9" font-family="Times,serif" font-size="14.00">collection_url</text>
<text text-anchor="start" x="910" y="-772.1" font-family="Times,serif" font-size="14.00">edit_resource_path</text>
<text text-anchor="start" x="910" y="-755.3" font-family="Times,serif" font-size="14.00">edit_resource_url</text>
<text text-anchor="start" x="910" y="-738.5" font-family="Times,serif" font-size="14.00">new_resource_path</text>
<text text-anchor="start" x="910" y="-721.7" font-family="Times,serif" font-size="14.00">new_resource_url</text>
<text text-anchor="start" x="910" y="-704.9" font-family="Times,serif" font-size="14.00">resource_path</text>
<text text-anchor="start" x="910" y="-688.1" font-family="Times,serif" font-size="14.00">resource_url</text>
<polyline fill="none" stroke="black" points="902,-681.3 1111.63,-681.3 "/>
<text text-anchor="start" x="910" y="-663.3" font-family="Times,serif" font-size="14.00">_layout</text>
</g>
</g>
</svg>
