<?xml version="1.0" encoding="UTF-8" standalone="no"?>
<!DOCTYPE svg PUBLIC "-//W3C//DTD SVG 1.1//EN"
 "http://www.w3.org/Graphics/SVG/1.1/DTD/svg11.dtd">
<!-- Generated by graphviz version 2.30.1 (20130501.0310)
 -->
<!-- Title: models_diagram Pages: 1 -->
<svg width="1112pt" height="406pt"
 viewBox="0.00 0.00 1112.00 406.00" xmlns="http://www.w3.org/2000/svg" xmlns:xlink="http://www.w3.org/1999/xlink">
<g id="graph0" class="graph" transform="scale(1 1) rotate(0) translate(4 402)">
<title>models_diagram</title>
<polygon fill="white" stroke="white" points="-4,5 -4,-402 1109,-402 1109,5 -4,5"/>
<!-- _diagram_info -->
<g id="node1" class="node"><title>_diagram_info</title>
<text text-anchor="start" x="7.31226" y="-381" font-family="Times,serif" font-size="13.00">Models diagram</text>
<text text-anchor="start" x="7.31226" y="-365.4" font-family="Times,serif" font-size="13.00">Date: May 23 2013 &#45; 12:19</text>
<text text-anchor="start" x="7.31226" y="-349.8" font-family="Times,serif" font-size="13.00">Migration version: 20130523185724</text>
<text text-anchor="start" x="7.31226" y="-334.2" font-family="Times,serif" font-size="13.00">Generated by RailRoady 1.1.0</text>
<text text-anchor="start" x="7.31226" y="-318.6" font-family="Times,serif" font-size="13.00">http://railroady.prestonlee.com</text>
</g>
<!-- Ability -->
<g id="node2" class="node"><title>Ability</title>
<polygon fill="none" stroke="black" points="280.255,-373 225.745,-373 225.745,-337 280.255,-337 280.255,-373"/>
<text text-anchor="middle" x="253" y="-349.4" font-family="Times,serif" font-size="14.00">Ability</text>
</g>
<!-- DelayedJob -->
<g id="node3" class="node"><title>DelayedJob</title>
<ellipse fill="none" stroke="black" cx="355" cy="-355" rx="56.4357" ry="18"/>
<text text-anchor="middle" x="355" y="-349.4" font-family="Times,serif" font-size="14.00">DelayedJob</text>
</g>
<!-- Favorite -->
<g id="node4" class="node"><title>Favorite</title>
<ellipse fill="none" stroke="black" cx="414" cy="-18" rx="43.3283" ry="18"/>
<text text-anchor="middle" x="414" y="-12.4" font-family="Times,serif" font-size="14.00">Favorite</text>
</g>
<!-- Item -->
<g id="node5" class="node"><title>Item</title>
<ellipse fill="none" stroke="black" cx="727" cy="-256" rx="28.5985" ry="18"/>
<text text-anchor="middle" x="727" y="-250.4" font-family="Times,serif" font-size="14.00">Item</text>
</g>
<!-- ActsAsTaggableOn::Tagging -->
<g id="node14" class="node"><title>ActsAsTaggableOn::Tagging</title>
<ellipse fill="none" stroke="black" cx="878" cy="-166" rx="123.097" ry="18"/>
<text text-anchor="middle" x="878" y="-160.4" font-family="Times,serif" font-size="14.00">ActsAsTaggableOn::Tagging</text>
</g>
<!-- Item&#45;&gt;ActsAsTaggableOn::Tagging -->
<g id="edge1" class="edge"><title>Item&#45;&gt;ActsAsTaggableOn::Tagging</title>
<path fill="none" stroke="#6171ab" d="M763.706,-253.119C791.396,-249.914 828.792,-241.547 854,-220 861.978,-213.181 867.434,-203.166 871.1,-193.673"/>
<ellipse fill="none" stroke="#6171ab" cx="759.428" cy="-253.553" rx="4" ry="4"/>
<polygon fill="#6171ab" stroke="#6171ab" points="871.123,-193.605 878.57,-185.556 872.713,-188.865 874.304,-184.125 874.304,-184.125 874.304,-184.125 872.713,-188.865 870.038,-182.693 871.123,-193.605 871.123,-193.605"/>
<text text-anchor="middle" x="890.721" y="-205.4" font-family="Times,serif" font-size="14.00">taggings</text>
</g>
<!-- ActsAsTaggableOn::Tag -->
<g id="node15" class="node"><title>ActsAsTaggableOn::Tag</title>
<ellipse fill="none" stroke="black" cx="593" cy="-166" rx="106.344" ry="18"/>
<text text-anchor="middle" x="593" y="-160.4" font-family="Times,serif" font-size="14.00">ActsAsTaggableOn::Tag</text>
</g>
<!-- Item&#45;&gt;ActsAsTaggableOn::Tag -->
<g id="edge2" class="edge"><title>Item&#45;&gt;ActsAsTaggableOn::Tag</title>
<path fill="none" stroke="#2a4005" d="M688.478,-251.895C663.951,-248.019 633.054,-239.348 612.572,-220 605.294,-213.124 600.708,-203.305 597.824,-193.983"/>
<polygon fill="#2a4005" stroke="#2a4005" points="688.644,-251.918 697.938,-257.739 693.598,-252.599 698.551,-253.28 698.551,-253.28 698.551,-253.28 693.598,-252.599 699.164,-248.822 688.644,-251.918 688.644,-251.918"/>
<polygon fill="#2a4005" stroke="#2a4005" points="597.806,-193.911 599.675,-183.106 596.561,-189.068 595.317,-184.226 595.317,-184.226 595.317,-184.226 596.561,-189.068 590.959,-185.346 597.806,-193.911 597.806,-193.911"/>
<text text-anchor="middle" x="639.214" y="-205.4" font-family="Times,serif" font-size="14.00">base_tags</text>
</g>
<!-- Item&#45;&gt;ActsAsTaggableOn::Tagging -->
<g id="edge3" class="edge"><title>Item&#45;&gt;ActsAsTaggableOn::Tagging</title>
<path fill="none" stroke="#ea91e1" d="M763.482,-253.681C813.32,-251.025 898.72,-243.135 918,-220 925.822,-210.614 920.311,-199.916 911.167,-190.601"/>
<ellipse fill="none" stroke="#ea91e1" cx="759.204" cy="-253.893" rx="4" ry="4"/>
<polygon fill="#ea91e1" stroke="#ea91e1" points="911.048,-190.493 906.643,-180.451 907.338,-187.142 903.627,-183.791 903.627,-183.791 903.627,-183.791 907.338,-187.142 900.611,-187.131 911.048,-190.493 911.048,-190.493"/>
<text text-anchor="middle" x="956.772" y="-205.4" font-family="Times,serif" font-size="14.00">tag_taggings</text>
</g>
<!-- Item&#45;&gt;ActsAsTaggableOn::Tag -->
<g id="edge4" class="edge"><title>Item&#45;&gt;ActsAsTaggableOn::Tag</title>
<path fill="none" stroke="#5d65d1" d="M704.076,-233.55C690.59,-221.174 674.713,-207.082 667,-202 658.897,-196.66 649.852,-191.679 640.944,-187.245"/>
<polygon fill="#5d65d1" stroke="#5d65d1" points="704.315,-233.771 708.605,-243.863 707.987,-237.164 711.659,-240.557 711.659,-240.557 711.659,-240.557 707.987,-237.164 714.713,-237.252 704.315,-233.771 704.315,-233.771"/>
<polygon fill="#5d65d1" stroke="#5d65d1" points="640.77,-187.161 633.705,-178.774 636.263,-184.996 631.756,-182.83 631.756,-182.83 631.756,-182.83 636.263,-184.996 629.807,-186.886 640.77,-187.161 640.77,-187.161"/>
<text text-anchor="middle" x="699.276" y="-205.4" font-family="Times,serif" font-size="14.00">tags</text>
</g>
<!-- Item&#45;&gt;ActsAsTaggableOn::Tagging -->
<g id="edge5" class="edge"><title>Item&#45;&gt;ActsAsTaggableOn::Tagging</title>
<path fill="none" stroke="#dee95b" d="M735.885,-230.406C740.648,-220.316 747.471,-209.312 756.689,-202 766.514,-194.208 778.006,-188.15 789.929,-183.442"/>
<ellipse fill="none" stroke="#dee95b" cx="734.234" cy="-234.2" rx="4.00002" ry="4.00002"/>
<polygon fill="#dee95b" stroke="#dee95b" points="790.159,-183.358 801.095,-184.177 794.859,-181.652 799.56,-179.947 799.56,-179.947 799.56,-179.947 794.859,-181.652 798.025,-175.717 790.159,-183.358 790.159,-183.358"/>
<text text-anchor="middle" x="802.655" y="-205.4" font-family="Times,serif" font-size="14.00">project_taggings</text>
</g>
<!-- Item&#45;&gt;ActsAsTaggableOn::Tag -->
<g id="edge6" class="edge"><title>Item&#45;&gt;ActsAsTaggableOn::Tag</title>
<path fill="none" stroke="#13b6bd" d="M688.596,-252.862C642.322,-249.39 568.654,-240.694 551.683,-220 543.842,-210.439 549.575,-199.71 558.986,-190.42"/>
<polygon fill="#13b6bd" stroke="#13b6bd" points="688.613,-252.863 698.273,-258.052 693.601,-253.213 698.588,-253.563 698.588,-253.563 698.588,-253.563 693.601,-253.213 698.903,-249.074 688.613,-252.863 688.613,-252.863"/>
<polygon fill="#13b6bd" stroke="#13b6bd" points="559.211,-190.223 569.7,-187.025 562.974,-186.931 566.737,-183.639 566.737,-183.639 566.737,-183.639 562.974,-186.931 563.773,-180.252 559.211,-190.223 559.211,-190.223"/>
<text text-anchor="middle" x="573.159" y="-205.4" font-family="Times,serif" font-size="14.00">projects</text>
</g>
<!-- Member -->
<g id="node6" class="node"><title>Member</title>
<ellipse fill="none" stroke="black" cx="705" cy="-92" rx="43.1305" ry="18"/>
<text text-anchor="middle" x="705" y="-86.4" font-family="Times,serif" font-size="14.00">Member</text>
</g>
<!-- Item&#45;&gt;Member -->
<g id="edge7" class="edge"><title>Item&#45;&gt;Member</title>
<path fill="none" stroke="#26da4c" d="M723.561,-229.676C719.523,-199.94 712.85,-150.807 708.702,-120.258"/>
<ellipse fill="none" stroke="#26da4c" cx="724.149" cy="-234.006" rx="4.00001" ry="4.00001"/>
<polygon fill="#26da4c" stroke="#26da4c" points="708.694,-120.199 711.807,-109.684 708.021,-115.245 707.348,-110.29 707.348,-110.29 707.348,-110.29 708.021,-115.245 702.889,-110.896 708.694,-120.199 708.694,-120.199"/>
</g>
<!-- Pipeline -->
<g id="node8" class="node"><title>Pipeline</title>
<ellipse fill="none" stroke="black" cx="1062" cy="-166" rx="42.5278" ry="18"/>
<text text-anchor="middle" x="1062" y="-160.4" font-family="Times,serif" font-size="14.00">Pipeline</text>
</g>
<!-- Item&#45;&gt;Pipeline -->
<g id="edge8" class="edge"><title>Item&#45;&gt;Pipeline</title>
<path fill="none" stroke="#3c875c" d="M765.203,-252.581C829.249,-248.102 955.27,-237.364 996,-220 1012.3,-213.051 1027.89,-200.888 1039.82,-189.966"/>
<polygon fill="#3c875c" stroke="#3c875c" points="765.085,-252.589 754.802,-248.781 760.097,-252.929 755.109,-253.27 755.109,-253.27 755.109,-253.27 760.097,-252.929 755.416,-257.76 765.085,-252.589 765.085,-252.589"/>
<polygon fill="#3c875c" stroke="#3c875c" points="1039.86,-189.93 1050.2,-186.295 1043.48,-186.483 1047.1,-183.035 1047.1,-183.035 1047.1,-183.035 1043.48,-186.483 1044,-179.776 1039.86,-189.93 1039.86,-189.93"/>
</g>
<!-- Status -->
<g id="node11" class="node"><title>Status</title>
<ellipse fill="none" stroke="black" cx="705" cy="-18" rx="34.4683" ry="18"/>
<text text-anchor="middle" x="705" y="-12.4" font-family="Times,serif" font-size="14.00">Status</text>
</g>
<!-- Member&#45;&gt;Status -->
<g id="edge9" class="edge"><title>Member&#45;&gt;Status</title>
<path fill="none" stroke="#f333e6" d="M705,-65.7923C705,-59.5805 705,-52.8963 705,-46.5786"/>
<ellipse fill="none" stroke="#f333e6" cx="705" cy="-69.937" rx="4" ry="4"/>
<polygon fill="#f333e6" stroke="#f333e6" points="705,-46.4407 709.5,-36.4406 705,-41.4407 705,-36.4407 705,-36.4407 705,-36.4407 705,-41.4407 700.5,-36.4407 705,-46.4407 705,-46.4407"/>
</g>
<!-- Member&#45;&gt;Favorite -->
<g id="edge10" class="edge"><title>Member&#45;&gt;Favorite</title>
<path fill="none" stroke="#f296c8" d="M660.9,-80.0886C606.712,-66.6813 515.205,-44.0403 460.112,-30.4091"/>
<ellipse fill="none" stroke="#f296c8" cx="664.85" cy="-81.066" rx="4.00001" ry="4.00001"/>
<polygon fill="#f296c8" stroke="#f296c8" points="459.973,-30.3749 451.347,-23.6047 455.119,-29.1739 450.266,-27.973 450.266,-27.973 450.266,-27.973 455.119,-29.1739 449.185,-32.3413 459.973,-30.3749 459.973,-30.3749"/>
</g>
<!-- Notification -->
<g id="node7" class="node"><title>Notification</title>
<ellipse fill="none" stroke="black" cx="574" cy="-18" rx="57.2568" ry="18"/>
<text text-anchor="middle" x="574" y="-12.4" font-family="Times,serif" font-size="14.00">Notification</text>
</g>
<!-- Stage -->
<g id="node10" class="node"><title>Stage</title>
<ellipse fill="none" stroke="black" cx="799" cy="-92" rx="32.2368" ry="18"/>
<text text-anchor="middle" x="799" y="-86.4" font-family="Times,serif" font-size="14.00">Stage</text>
</g>
<!-- Pipeline&#45;&gt;Stage -->
<g id="edge11" class="edge"><title>Pipeline&#45;&gt;Stage</title>
<path fill="none" stroke="#deb94e" d="M1022.34,-151.599C1018.19,-150.328 1014.02,-149.103 1010,-148 935.342,-127.503 913.812,-133.358 840,-110 837.706,-109.274 835.363,-108.473 833.015,-107.625"/>
<ellipse fill="none" stroke="#deb94e" cx="1026.43" cy="-152.885" rx="4.00001" ry="4.00001"/>
<polygon fill="#deb94e" stroke="#deb94e" points="832.794,-107.54 825.075,-99.7508 828.127,-105.745 823.46,-103.951 823.46,-103.951 823.46,-103.951 828.127,-105.745 821.845,-108.151 832.794,-107.54 832.794,-107.54"/>
</g>
<!-- Pipeline&#45;&gt;Member -->
<g id="edge12" class="edge"><title>Pipeline&#45;&gt;Member</title>
<path fill="none" stroke="#925172" d="M1022.91,-151.453C1018.58,-150.183 1014.22,-149 1010,-148 899.79,-121.867 868.283,-135.825 758,-110 754.351,-109.146 750.592,-108.16 746.839,-107.102"/>
<ellipse fill="none" stroke="#925172" cx="1026.79" cy="-152.641" rx="4.00001" ry="4.00001"/>
<polygon fill="#925172" stroke="#925172" points="746.585,-107.027 738.283,-99.8625 741.792,-105.601 737,-104.176 737,-104.176 737,-104.176 741.792,-105.601 735.717,-108.489 746.585,-107.027 746.585,-107.027"/>
</g>
<!-- Service -->
<g id="node9" class="node"><title>Service</title>
<ellipse fill="none" stroke="black" cx="889" cy="-92" rx="39.4899" ry="18"/>
<text text-anchor="middle" x="889" y="-86.4" font-family="Times,serif" font-size="14.00">Service</text>
</g>
<!-- Trigger -->
<g id="node12" class="node"><title>Trigger</title>
<ellipse fill="none" stroke="black" cx="866" cy="-18" rx="39.4869" ry="18"/>
<text text-anchor="middle" x="866" y="-12.4" font-family="Times,serif" font-size="14.00">Trigger</text>
</g>
<!-- Service&#45;&gt;Trigger -->
<g id="edge13" class="edge"><title>Service&#45;&gt;Trigger</title>
<path fill="none" stroke="#94fd9a" d="M881.098,-66.2624C879.002,-59.7009 876.728,-52.5844 874.597,-45.9133"/>
<ellipse fill="none" stroke="#94fd9a" cx="882.332" cy="-70.1267" rx="4.00001" ry="4.00001"/>
<polygon fill="#94fd9a" stroke="#94fd9a" points="874.455,-45.4663 875.698,-34.5712 872.933,-40.7034 871.412,-35.9405 871.412,-35.9405 871.412,-35.9405 872.933,-40.7034 867.125,-37.3099 874.455,-45.4663 874.455,-45.4663"/>
</g>
<!-- Stage&#45;&gt;Status -->
<g id="edge14" class="edge"><title>Stage&#45;&gt;Status</title>
<path fill="none" stroke="#5a5a67" d="M773.928,-71.7958C760.927,-61.8375 745.04,-49.6692 731.797,-39.5254"/>
<ellipse fill="none" stroke="#5a5a67" cx="777.253" cy="-74.3428" rx="4.00002" ry="4.00002"/>
<polygon fill="#5a5a67" stroke="#5a5a67" points="731.472,-39.2761 726.269,-29.6229 727.502,-36.2357 723.533,-33.1953 723.533,-33.1953 723.533,-33.1953 727.502,-36.2357 720.796,-36.7678 731.472,-39.2761 731.472,-39.2761"/>
</g>
<!-- Stage&#45;&gt;Trigger -->
<g id="edge15" class="edge"><title>Stage&#45;&gt;Trigger</title>
<path fill="none" stroke="#be1096" d="M818.754,-69.7715C826.829,-61.0943 836.193,-51.0318 844.444,-42.1648"/>
<ellipse fill="none" stroke="#be1096" cx="815.934" cy="-72.8024" rx="4.00002" ry="4.00002"/>
<polygon fill="#be1096" stroke="#be1096" points="844.536,-42.0658 854.643,-37.8106 847.942,-38.4054 851.348,-34.7451 851.348,-34.7451 851.348,-34.7451 847.942,-38.4054 848.054,-31.6795 844.536,-42.0658 844.536,-42.0658"/>
</g>
<!-- Stage&#45;&gt;Notification -->
<g id="edge16" class="edge"><title>Stage&#45;&gt;Notification</title>
<path fill="none" stroke="#f10e61" d="M766.203,-77.3867C763.106,-76.2037 760.003,-75.0565 757,-74 713.234,-58.6029 662.672,-43.6144 625.801,-33.1832"/>
<ellipse fill="none" stroke="#f10e61" cx="770.101" cy="-78.9119" rx="4.00001" ry="4.00001"/>
<polygon fill="#f10e61" stroke="#f10e61" points="625.408,-33.0728 617,-26.0334 620.595,-31.719 615.781,-30.3653 615.781,-30.3653 615.781,-30.3653 620.595,-31.719 614.563,-34.6973 625.408,-33.0728 625.408,-33.0728"/>
</g>
<!-- User -->
<g id="node13" class="node"><title>User</title>
<ellipse fill="none" stroke="black" cx="459" cy="-355" rx="28.9087" ry="18"/>
<text text-anchor="middle" x="459" y="-349.4" font-family="Times,serif" font-size="14.00">User</text>
</g>
<!-- User&#45;&gt;Item -->
<g id="edge17" class="edge"><title>User&#45;&gt;Item</title>
<path fill="none" stroke="#edf710" d="M491.35,-342.291C542.447,-323.797 641.35,-288 693.284,-269.203"/>
<ellipse fill="none" stroke="#edf710" cx="487.494" cy="-343.687" rx="4.00001" ry="4.00001"/>
<polygon fill="#edf710" stroke="#edf710" points="693.311,-269.193 704.246,-270.021 698.013,-267.492 702.714,-265.79 702.714,-265.79 702.714,-265.79 698.013,-267.492 701.183,-261.559 693.311,-269.193 693.311,-269.193"/>
</g>
<!-- User&#45;&gt;Pipeline -->
<g id="edge18" class="edge"><title>User&#45;&gt;Pipeline</title>
<path fill="none" stroke="#bd586c" d="M496.474,-353.88C592.541,-351.845 852.115,-335.29 1024,-220 1034.22,-213.143 1042.62,-202.552 1048.89,-192.634"/>
<ellipse fill="none" stroke="#bd586c" cx="492.229" cy="-353.956" rx="4" ry="4"/>
<polygon fill="#bd586c" stroke="#bd586c" points="1048.99,-192.467 1057.93,-186.119 1051.52,-188.155 1054.05,-183.842 1054.05,-183.842 1054.05,-183.842 1051.52,-188.155 1050.17,-181.565 1048.99,-192.467 1048.99,-192.467"/>
</g>
<!-- User&#45;&gt;Status -->
<g id="edge19" class="edge"><title>User&#45;&gt;Status</title>
<path fill="none" stroke="#205203" d="M454.378,-328.923C448.175,-287.6 441.749,-204.186 478,-148 521.173,-81.0864 611.992,-45.261 664.733,-29.3672"/>
<ellipse fill="none" stroke="#205203" cx="455.012" cy="-332.892" rx="4.00001" ry="4.00001"/>
<polygon fill="#205203" stroke="#205203" points="664.832,-29.3382 675.692,-30.8597 669.632,-27.9389 674.433,-26.5395 674.433,-26.5395 674.433,-26.5395 669.632,-27.9389 673.173,-22.2193 664.832,-29.3382 664.832,-29.3382"/>
</g>
<!-- User&#45;&gt;Favorite -->
<g id="edge20" class="edge"><title>User&#45;&gt;Favorite</title>
<path fill="none" stroke="#d54cf3" d="M439.076,-332.489C429.064,-321.318 416.972,-307.262 407,-294 395.22,-278.334 383,-276.601 383,-257 383,-257 383,-257 383,-91 383,-74.6826 389.8,-57.8562 397.03,-44.577"/>
<ellipse fill="none" stroke="#d54cf3" cx="442.016" cy="-335.739" rx="4.00002" ry="4.00002"/>
<polygon fill="#d54cf3" stroke="#d54cf3" points="397.235,-44.2266 406.166,-37.8629 399.758,-39.9096 402.28,-35.5926 402.28,-35.5926 402.28,-35.5926 399.758,-39.9096 398.395,-33.3222 397.235,-44.2266 397.235,-44.2266"/>
</g>
<!-- User&#45;&gt;Notification -->
<g id="edge21" class="edge"><title>User&#45;&gt;Notification</title>
<path fill="none" stroke="#19ebd4" d="M444.293,-330.846C433.603,-311.788 421,-283.665 421,-257 421,-257 421,-257 421,-91 421,-49.6896 467.229,-32.0396 508.865,-24.5205"/>
<ellipse fill="none" stroke="#19ebd4" cx="446.404" cy="-334.474" rx="4.00002" ry="4.00002"/>
<polygon fill="#19ebd4" stroke="#19ebd4" points="508.895,-24.5156 519.49,-27.3414 513.829,-23.708 518.763,-22.9004 518.763,-22.9004 518.763,-22.9004 513.829,-23.708 518.037,-18.4595 508.895,-24.5156 508.895,-24.5156"/>
</g>
</g>
</svg>
