<?xml version="1.0" encoding="UTF-8" standalone="no"?>
<!DOCTYPE svg PUBLIC "-//W3C//DTD SVG 1.1//EN"
 "http://www.w3.org/Graphics/SVG/1.1/DTD/svg11.dtd">
<!-- Generated by graphviz version 2.30.1 (20130501.0310)
 -->
<!-- Title: models_diagram Pages: 1 -->
<svg width="1253pt" height="1222pt"
 viewBox="0.00 0.00 1253.00 1222.00" xmlns="http://www.w3.org/2000/svg" xmlns:xlink="http://www.w3.org/1999/xlink">
<g id="graph0" class="graph" transform="scale(1 1) rotate(0) translate(4 1218)">
<title>models_diagram</title>
<polygon fill="white" stroke="white" points="-4,5 -4,-1218 1250,-1218 1250,5 -4,5"/>
<!-- _diagram_info -->
<g id="node1" class="node"><title>_diagram_info</title>
<text text-anchor="start" x="7.31226" y="-1055" font-family="Times,serif" font-size="13.00">Models diagram</text>
<text text-anchor="start" x="7.31226" y="-1039.4" font-family="Times,serif" font-size="13.00">Date: May 23 2013 &#45; 12:19</text>
<text text-anchor="start" x="7.31226" y="-1023.8" font-family="Times,serif" font-size="13.00">Migration version: 20130523185724</text>
<text text-anchor="start" x="7.31226" y="-1008.2" font-family="Times,serif" font-size="13.00">Generated by RailRoady 1.1.0</text>
<text text-anchor="start" x="7.31226" y="-992.6" font-family="Times,serif" font-size="13.00">http://railroady.prestonlee.com</text>
</g>
<!-- Ability -->
<g id="node2" class="node"><title>Ability</title>
<polygon fill="none" stroke="black" points="225.166,-1004.2 225.166,-1053.8 280.834,-1053.8 280.834,-1004.2 225.166,-1004.2"/>
<text text-anchor="middle" x="253" y="-1035.8" font-family="Times,serif" font-size="14.00">Ability</text>
<polyline fill="none" stroke="black" points="225.166,-1029 280.834,-1029 "/>
<text text-anchor="middle" x="253" y="-1011" font-family="Times,serif" font-size="14.00"> </text>
</g>
<!-- DelayedJob -->
<g id="node3" class="node"><title>DelayedJob</title>
<path fill="none" stroke="black" d="M310.495,-911.8C310.495,-911.8 419.505,-911.8 419.505,-911.8 425.505,-911.8 431.505,-917.8 431.505,-923.8 431.505,-923.8 431.505,-1134.2 431.505,-1134.2 431.505,-1140.2 425.505,-1146.2 419.505,-1146.2 419.505,-1146.2 310.495,-1146.2 310.495,-1146.2 304.495,-1146.2 298.495,-1140.2 298.495,-1134.2 298.495,-1134.2 298.495,-923.8 298.495,-923.8 298.495,-917.8 304.495,-911.8 310.495,-911.8"/>
<text text-anchor="middle" x="365" y="-1128.2" font-family="Times,serif" font-size="14.00">DelayedJob</text>
<polyline fill="none" stroke="black" points="298.495,-1121.4 431.505,-1121.4 "/>
<text text-anchor="start" x="306.495" y="-1103.4" font-family="Times,serif" font-size="14.00">id :integer</text>
<text text-anchor="start" x="306.495" y="-1086.6" font-family="Times,serif" font-size="14.00">priority :integer</text>
<text text-anchor="start" x="306.495" y="-1069.8" font-family="Times,serif" font-size="14.00">attempts :integer</text>
<text text-anchor="start" x="306.495" y="-1053" font-family="Times,serif" font-size="14.00">handler :text</text>
<text text-anchor="start" x="306.495" y="-1036.2" font-family="Times,serif" font-size="14.00">last_error :text</text>
<text text-anchor="start" x="306.495" y="-1019.4" font-family="Times,serif" font-size="14.00">run_at :datetime</text>
<text text-anchor="start" x="306.495" y="-1002.6" font-family="Times,serif" font-size="14.00">locked_at :datetime</text>
<text text-anchor="start" x="306.495" y="-985.8" font-family="Times,serif" font-size="14.00">failed_at :datetime</text>
<text text-anchor="start" x="306.495" y="-969" font-family="Times,serif" font-size="14.00">locked_by :string</text>
<text text-anchor="start" x="306.495" y="-952.2" font-family="Times,serif" font-size="14.00">queue :string</text>
<text text-anchor="start" x="306.495" y="-935.4" font-family="Times,serif" font-size="14.00">created_at :datetime</text>
<text text-anchor="start" x="306.495" y="-918.6" font-family="Times,serif" font-size="14.00">updated_at :datetime</text>
</g>
<!-- Favorite -->
<g id="node4" class="node"><title>Favorite</title>
<path fill="none" stroke="black" d="M432.495,-34.6C432.495,-34.6 541.505,-34.6 541.505,-34.6 547.505,-34.6 553.505,-40.6 553.505,-46.6 553.505,-46.6 553.505,-139.4 553.505,-139.4 553.505,-145.4 547.505,-151.4 541.505,-151.4 541.505,-151.4 432.495,-151.4 432.495,-151.4 426.495,-151.4 420.495,-145.4 420.495,-139.4 420.495,-139.4 420.495,-46.6 420.495,-46.6 420.495,-40.6 426.495,-34.6 432.495,-34.6"/>
<text text-anchor="middle" x="487" y="-133.4" font-family="Times,serif" font-size="14.00">Favorite</text>
<polyline fill="none" stroke="black" points="420.495,-126.6 553.505,-126.6 "/>
<text text-anchor="start" x="428.495" y="-108.6" font-family="Times,serif" font-size="14.00">id :integer</text>
<text text-anchor="start" x="428.495" y="-91.8" font-family="Times,serif" font-size="14.00">user_id :integer</text>
<text text-anchor="start" x="428.495" y="-75" font-family="Times,serif" font-size="14.00">member_id :integer</text>
<text text-anchor="start" x="428.495" y="-58.2" font-family="Times,serif" font-size="14.00">created_at :datetime</text>
<text text-anchor="start" x="428.495" y="-41.4" font-family="Times,serif" font-size="14.00">updated_at :datetime</text>
</g>
<!-- Item -->
<g id="node5" class="node"><title>Item</title>
<path fill="none" stroke="black" d="M765.495,-654.8C765.495,-654.8 874.505,-654.8 874.505,-654.8 880.505,-654.8 886.505,-660.8 886.505,-666.8 886.505,-666.8 886.505,-793.2 886.505,-793.2 886.505,-799.2 880.505,-805.2 874.505,-805.2 874.505,-805.2 765.495,-805.2 765.495,-805.2 759.495,-805.2 753.495,-799.2 753.495,-793.2 753.495,-793.2 753.495,-666.8 753.495,-666.8 753.495,-660.8 759.495,-654.8 765.495,-654.8"/>
<text text-anchor="middle" x="820" y="-787.2" font-family="Times,serif" font-size="14.00">Item</text>
<polyline fill="none" stroke="black" points="753.495,-780.4 886.505,-780.4 "/>
<text text-anchor="start" x="761.495" y="-762.4" font-family="Times,serif" font-size="14.00">id :integer</text>
<text text-anchor="start" x="761.495" y="-745.6" font-family="Times,serif" font-size="14.00">name :string</text>
<text text-anchor="start" x="761.495" y="-728.8" font-family="Times,serif" font-size="14.00">notes :text</text>
<text text-anchor="start" x="761.495" y="-712" font-family="Times,serif" font-size="14.00">created_at :datetime</text>
<text text-anchor="start" x="761.495" y="-695.2" font-family="Times,serif" font-size="14.00">updated_at :datetime</text>
<text text-anchor="start" x="761.495" y="-678.4" font-family="Times,serif" font-size="14.00">created_by :integer</text>
<text text-anchor="start" x="761.495" y="-661.6" font-family="Times,serif" font-size="14.00">data :text</text>
</g>
<!-- ActsAsTaggableOn::Tagging -->
<g id="node14" class="node"><title>ActsAsTaggableOn::Tagging</title>
<ellipse fill="none" stroke="black" cx="971" cy="-524" rx="123.097" ry="18"/>
<text text-anchor="middle" x="971" y="-518.4" font-family="Times,serif" font-size="14.00">ActsAsTaggableOn::Tagging</text>
</g>
<!-- Item&#45;&gt;ActsAsTaggableOn::Tagging -->
<g id="edge1" class="edge"><title>Item&#45;&gt;ActsAsTaggableOn::Tagging</title>
<path fill="none" stroke="#00250e" d="M893.561,-688.773C913.609,-674.538 933.497,-656.799 947,-636 963.386,-610.761 968.764,-576.162 970.436,-552.335"/>
<ellipse fill="none" stroke="#00250e" cx="890.056" cy="-691.193" rx="4.00002" ry="4.00002"/>
<polygon fill="#00250e" stroke="#00250e" points="970.443,-552.204 975.463,-542.455 970.706,-547.211 970.969,-542.218 970.969,-542.218 970.969,-542.218 970.706,-547.211 966.476,-541.981 970.443,-552.204 970.443,-552.204"/>
<text text-anchor="middle" x="978.721" y="-621.4" font-family="Times,serif" font-size="14.00">taggings</text>
</g>
<!-- ActsAsTaggableOn::Tag -->
<g id="node15" class="node"><title>ActsAsTaggableOn::Tag</title>
<ellipse fill="none" stroke="black" cx="686" cy="-524" rx="106.344" ry="18"/>
<text text-anchor="middle" x="686" y="-518.4" font-family="Times,serif" font-size="14.00">ActsAsTaggableOn::Tag</text>
</g>
<!-- Item&#45;&gt;ActsAsTaggableOn::Tag -->
<g id="edge2" class="edge"><title>Item&#45;&gt;ActsAsTaggableOn::Tag</title>
<path fill="none" stroke="#b27b23" d="M745.344,-681.351C730.077,-668.372 715.625,-653.102 705.572,-636 690.437,-610.253 686.392,-575.752 685.593,-552.087"/>
<polygon fill="#b27b23" stroke="#b27b23" points="745.642,-681.596 750.533,-691.411 749.512,-684.762 753.382,-687.928 753.382,-687.928 753.382,-687.928 749.512,-684.762 756.232,-684.445 745.642,-681.596 745.642,-681.596"/>
<polygon fill="#b27b23" stroke="#b27b23" points="685.592,-552.045 689.926,-541.972 685.509,-547.046 685.426,-542.046 685.426,-542.046 685.426,-542.046 685.509,-547.046 680.927,-542.121 685.592,-552.045 685.592,-552.045"/>
<text text-anchor="middle" x="732.214" y="-621.4" font-family="Times,serif" font-size="14.00">base_tags</text>
</g>
<!-- Item&#45;&gt;ActsAsTaggableOn::Tagging -->
<g id="edge3" class="edge"><title>Item&#45;&gt;ActsAsTaggableOn::Tagging</title>
<path fill="none" stroke="#1d5114" d="M894.556,-712.057C935.034,-698.646 981.66,-675.383 1006,-636 1022.48,-609.328 1006.12,-574.207 990.681,-550.679"/>
<ellipse fill="none" stroke="#1d5114" cx="890.624" cy="-713.312" rx="4.00001" ry="4.00001"/>
<polygon fill="#1d5114" stroke="#1d5114" points="990.559,-550.501 988.581,-539.715 987.718,-546.386 984.878,-542.271 984.878,-542.271 984.878,-542.271 987.718,-546.386 981.174,-544.828 990.559,-550.501 990.559,-550.501"/>
<text text-anchor="middle" x="1047.77" y="-621.4" font-family="Times,serif" font-size="14.00">tag_taggings</text>
</g>
<!-- Item&#45;&gt;ActsAsTaggableOn::Tag -->
<g id="edge4" class="edge"><title>Item&#45;&gt;ActsAsTaggableOn::Tag</title>
<path fill="none" stroke="#2921cf" d="M777.228,-645.984C771.675,-636.4 765.871,-626.886 760,-618 744.022,-593.815 723.295,-568.167 707.844,-549.945"/>
<polygon fill="#2921cf" stroke="#2921cf" points="777.295,-646.102 778.342,-657.018 779.773,-650.445 782.25,-654.788 782.25,-654.788 782.25,-654.788 779.773,-650.445 786.159,-652.558 777.295,-646.102 777.295,-646.102"/>
<polygon fill="#2921cf" stroke="#2921cf" points="707.655,-549.724 704.57,-539.201 704.403,-545.926 701.152,-542.128 701.152,-542.128 701.152,-542.128 704.403,-545.926 697.733,-545.054 707.655,-549.724 707.655,-549.724"/>
<text text-anchor="middle" x="782.276" y="-621.4" font-family="Times,serif" font-size="14.00">tags</text>
</g>
<!-- Item&#45;&gt;ActsAsTaggableOn::Tagging -->
<g id="edge5" class="edge"><title>Item&#45;&gt;ActsAsTaggableOn::Tagging</title>
<path fill="none" stroke="#51788d" d="M835.32,-646.881C839.103,-636.696 843.817,-626.789 849.689,-618 870.022,-587.57 903.654,-562.936 930.354,-546.685"/>
<ellipse fill="none" stroke="#51788d" cx="833.916" cy="-650.931" rx="4.00001" ry="4.00001"/>
<polygon fill="#51788d" stroke="#51788d" points="930.51,-546.593 941.407,-545.371 934.812,-544.046 939.115,-541.499 939.115,-541.499 939.115,-541.499 934.812,-544.046 936.822,-537.627 930.51,-546.593 930.51,-546.593"/>
<text text-anchor="middle" x="895.655" y="-621.4" font-family="Times,serif" font-size="14.00">project_taggings</text>
</g>
<!-- Item&#45;&gt;ActsAsTaggableOn::Tag -->
<g id="edge6" class="edge"><title>Item&#45;&gt;ActsAsTaggableOn::Tag</title>
<path fill="none" stroke="#20b609" d="M743.721,-707.623C708.256,-693.439 669.413,-670.841 648.683,-636 632.551,-608.888 649.687,-573.86 665.688,-550.474"/>
<polygon fill="#20b609" stroke="#20b609" points="743.793,-707.651 751.523,-715.429 748.463,-709.439 753.132,-711.227 753.132,-711.227 753.132,-711.227 748.463,-709.439 754.741,-707.024 743.793,-707.651 743.793,-707.651"/>
<polygon fill="#20b609" stroke="#20b609" points="665.855,-550.242 675.346,-544.749 668.774,-546.182 671.692,-542.122 671.692,-542.122 671.692,-542.122 668.774,-546.182 668.039,-539.495 665.855,-550.242 665.855,-550.242"/>
<text text-anchor="middle" x="670.159" y="-621.4" font-family="Times,serif" font-size="14.00">projects</text>
</g>
<!-- Member -->
<g id="node6" class="node"><title>Member</title>
<path fill="none" stroke="black" d="M762.495,-250.2C762.495,-250.2 871.505,-250.2 871.505,-250.2 877.505,-250.2 883.505,-256.2 883.505,-262.2 883.505,-262.2 883.505,-371.8 883.505,-371.8 883.505,-377.8 877.505,-383.8 871.505,-383.8 871.505,-383.8 762.495,-383.8 762.495,-383.8 756.495,-383.8 750.495,-377.8 750.495,-371.8 750.495,-371.8 750.495,-262.2 750.495,-262.2 750.495,-256.2 756.495,-250.2 762.495,-250.2"/>
<text text-anchor="middle" x="817" y="-365.8" font-family="Times,serif" font-size="14.00">Member</text>
<polyline fill="none" stroke="black" points="750.495,-359 883.505,-359 "/>
<text text-anchor="start" x="758.495" y="-341" font-family="Times,serif" font-size="14.00">id :integer</text>
<text text-anchor="start" x="758.495" y="-324.2" font-family="Times,serif" font-size="14.00">pipeline_id :integer</text>
<text text-anchor="start" x="758.495" y="-307.4" font-family="Times,serif" font-size="14.00">item_id :integer</text>
<text text-anchor="start" x="758.495" y="-290.6" font-family="Times,serif" font-size="14.00">created_at :datetime</text>
<text text-anchor="start" x="758.495" y="-273.8" font-family="Times,serif" font-size="14.00">updated_at :datetime</text>
<text text-anchor="start" x="758.495" y="-257" font-family="Times,serif" font-size="14.00">archived :boolean</text>
</g>
<!-- Item&#45;&gt;Member -->
<g id="edge7" class="edge"><title>Item&#45;&gt;Member</title>
<path fill="none" stroke="#e34b1b" d="M819.396,-646.281C818.859,-572.7 818.08,-465.96 817.557,-394.37"/>
<ellipse fill="none" stroke="#e34b1b" cx="819.427" cy="-650.571" rx="4" ry="4"/>
<polygon fill="#e34b1b" stroke="#e34b1b" points="817.555,-394.071 821.982,-384.038 817.519,-389.071 817.482,-384.071 817.482,-384.071 817.482,-384.071 817.519,-389.071 812.982,-384.104 817.555,-394.071 817.555,-394.071"/>
</g>
<!-- Pipeline -->
<g id="node8" class="node"><title>Pipeline</title>
<path fill="none" stroke="black" d="M1124.49,-448.8C1124.49,-448.8 1233.51,-448.8 1233.51,-448.8 1239.51,-448.8 1245.51,-454.8 1245.51,-460.8 1245.51,-460.8 1245.51,-587.2 1245.51,-587.2 1245.51,-593.2 1239.51,-599.2 1233.51,-599.2 1233.51,-599.2 1124.49,-599.2 1124.49,-599.2 1118.49,-599.2 1112.49,-593.2 1112.49,-587.2 1112.49,-587.2 1112.49,-460.8 1112.49,-460.8 1112.49,-454.8 1118.49,-448.8 1124.49,-448.8"/>
<text text-anchor="middle" x="1179" y="-581.2" font-family="Times,serif" font-size="14.00">Pipeline</text>
<polyline fill="none" stroke="black" points="1112.49,-574.4 1245.51,-574.4 "/>
<text text-anchor="start" x="1120.49" y="-556.4" font-family="Times,serif" font-size="14.00">id :integer</text>
<text text-anchor="start" x="1120.49" y="-539.6" font-family="Times,serif" font-size="14.00">name :string</text>
<text text-anchor="start" x="1120.49" y="-522.8" font-family="Times,serif" font-size="14.00">description :text</text>
<text text-anchor="start" x="1120.49" y="-506" font-family="Times,serif" font-size="14.00">code :string</text>
<text text-anchor="start" x="1120.49" y="-489.2" font-family="Times,serif" font-size="14.00">created_at :datetime</text>
<text text-anchor="start" x="1120.49" y="-472.4" font-family="Times,serif" font-size="14.00">updated_at :datetime</text>
<text text-anchor="start" x="1120.49" y="-455.6" font-family="Times,serif" font-size="14.00">created_by :integer</text>
</g>
<!-- Item&#45;&gt;Pipeline -->
<g id="edge8" class="edge"><title>Item&#45;&gt;Pipeline</title>
<path fill="none" stroke="#a22e1d" d="M896.536,-714.014C952.877,-700.334 1029.38,-676.012 1087,-636 1098.86,-627.765 1110.05,-617.604 1120.26,-606.805"/>
<polygon fill="#a22e1d" stroke="#a22e1d" points="896.345,-714.06 885.577,-711.986 891.479,-715.212 886.614,-716.365 886.614,-716.365 886.614,-716.365 891.479,-715.212 887.651,-720.743 896.345,-714.06 896.345,-714.06"/>
<polygon fill="#a22e1d" stroke="#a22e1d" points="1120.43,-606.623 1130.5,-602.278 1123.8,-602.933 1127.17,-599.242 1127.17,-599.242 1127.17,-599.242 1123.8,-602.933 1123.85,-596.206 1120.43,-606.623 1120.43,-606.623"/>
</g>
<!-- Status -->
<g id="node11" class="node"><title>Status</title>
<path fill="none" stroke="black" d="M743.833,-1C743.833,-1 890.167,-1 890.167,-1 896.167,-1 902.167,-7 902.167,-13 902.167,-13 902.167,-173 902.167,-173 902.167,-179 896.167,-185 890.167,-185 890.167,-185 743.833,-185 743.833,-185 737.833,-185 731.833,-179 731.833,-173 731.833,-173 731.833,-13 731.833,-13 731.833,-7 737.833,-1 743.833,-1"/>
<text text-anchor="middle" x="817" y="-167" font-family="Times,serif" font-size="14.00">Status</text>
<polyline fill="none" stroke="black" points="731.833,-160.2 902.167,-160.2 "/>
<text text-anchor="start" x="739.833" y="-142.2" font-family="Times,serif" font-size="14.00">id :integer</text>
<text text-anchor="start" x="739.833" y="-125.4" font-family="Times,serif" font-size="14.00">member_id :integer</text>
<text text-anchor="start" x="739.833" y="-108.6" font-family="Times,serif" font-size="14.00">stage_id :integer</text>
<text text-anchor="start" x="739.833" y="-91.8" font-family="Times,serif" font-size="14.00">created_at :datetime</text>
<text text-anchor="start" x="739.833" y="-75" font-family="Times,serif" font-size="14.00">updated_at :datetime</text>
<text text-anchor="start" x="739.833" y="-58.2" font-family="Times,serif" font-size="14.00">code :string</text>
<text text-anchor="start" x="739.833" y="-41.4" font-family="Times,serif" font-size="14.00">created_by :integer</text>
<text text-anchor="start" x="739.833" y="-24.6" font-family="Times,serif" font-size="14.00">last_processed_at :datetime</text>
<text text-anchor="start" x="739.833" y="-7.8" font-family="Times,serif" font-size="14.00">notes :text</text>
</g>
<!-- Member&#45;&gt;Status -->
<g id="edge9" class="edge"><title>Member&#45;&gt;Status</title>
<path fill="none" stroke="#6338ee" d="M817,-241.777C817,-226.906 817,-211.043 817,-195.433"/>
<ellipse fill="none" stroke="#6338ee" cx="817" cy="-245.994" rx="4" ry="4"/>
<polygon fill="#6338ee" stroke="#6338ee" points="817,-195.226 821.5,-185.226 817,-190.226 817,-185.226 817,-185.226 817,-185.226 817,-190.226 812.5,-185.226 817,-195.226 817,-195.226"/>
</g>
<!-- Member&#45;&gt;Favorite -->
<g id="edge10" class="edge"><title>Member&#45;&gt;Favorite</title>
<path fill="none" stroke="#cb1843" d="M742.905,-286.001C691.028,-262.995 621.674,-228.091 568,-186 557.858,-178.047 547.982,-168.708 538.813,-159.084"/>
<ellipse fill="none" stroke="#cb1843" cx="746.767" cy="-287.698" rx="4.00002" ry="4.00002"/>
<polygon fill="#cb1843" stroke="#cb1843" points="538.75,-159.016 535.244,-148.625 535.348,-155.351 531.946,-151.687 531.946,-151.687 531.946,-151.687 535.348,-155.351 528.648,-154.748 538.75,-159.016 538.75,-159.016"/>
</g>
<!-- Notification -->
<g id="node7" class="node"><title>Notification</title>
<path fill="none" stroke="black" d="M589.495,-17.8C589.495,-17.8 698.505,-17.8 698.505,-17.8 704.505,-17.8 710.505,-23.8 710.505,-29.8 710.505,-29.8 710.505,-156.2 710.505,-156.2 710.505,-162.2 704.505,-168.2 698.505,-168.2 698.505,-168.2 589.495,-168.2 589.495,-168.2 583.495,-168.2 577.495,-162.2 577.495,-156.2 577.495,-156.2 577.495,-29.8 577.495,-29.8 577.495,-23.8 583.495,-17.8 589.495,-17.8"/>
<text text-anchor="middle" x="644" y="-150.2" font-family="Times,serif" font-size="14.00">Notification</text>
<polyline fill="none" stroke="black" points="577.495,-143.4 710.505,-143.4 "/>
<text text-anchor="start" x="585.495" y="-125.4" font-family="Times,serif" font-size="14.00">id :integer</text>
<text text-anchor="start" x="585.495" y="-108.6" font-family="Times,serif" font-size="14.00">user_id :integer</text>
<text text-anchor="start" x="585.495" y="-91.8" font-family="Times,serif" font-size="14.00">stage_id :integer</text>
<text text-anchor="start" x="585.495" y="-75" font-family="Times,serif" font-size="14.00">condition :string</text>
<text text-anchor="start" x="585.495" y="-58.2" font-family="Times,serif" font-size="14.00">count :integer</text>
<text text-anchor="start" x="585.495" y="-41.4" font-family="Times,serif" font-size="14.00">created_at :datetime</text>
<text text-anchor="start" x="585.495" y="-24.6" font-family="Times,serif" font-size="14.00">updated_at :datetime</text>
</g>
<!-- Stage -->
<g id="node10" class="node"><title>Stage</title>
<path fill="none" stroke="black" d="M913.495,-241.8C913.495,-241.8 1022.51,-241.8 1022.51,-241.8 1028.51,-241.8 1034.51,-247.8 1034.51,-253.8 1034.51,-253.8 1034.51,-380.2 1034.51,-380.2 1034.51,-386.2 1028.51,-392.2 1022.51,-392.2 1022.51,-392.2 913.495,-392.2 913.495,-392.2 907.495,-392.2 901.495,-386.2 901.495,-380.2 901.495,-380.2 901.495,-253.8 901.495,-253.8 901.495,-247.8 907.495,-241.8 913.495,-241.8"/>
<text text-anchor="middle" x="968" y="-374.2" font-family="Times,serif" font-size="14.00">Stage</text>
<polyline fill="none" stroke="black" points="901.495,-367.4 1034.51,-367.4 "/>
<text text-anchor="start" x="909.495" y="-349.4" font-family="Times,serif" font-size="14.00">id :integer</text>
<text text-anchor="start" x="909.495" y="-332.6" font-family="Times,serif" font-size="14.00">pipeline_id :integer</text>
<text text-anchor="start" x="909.495" y="-315.8" font-family="Times,serif" font-size="14.00">name :string</text>
<text text-anchor="start" x="909.495" y="-299" font-family="Times,serif" font-size="14.00">description :text</text>
<text text-anchor="start" x="909.495" y="-282.2" font-family="Times,serif" font-size="14.00">created_at :datetime</text>
<text text-anchor="start" x="909.495" y="-265.4" font-family="Times,serif" font-size="14.00">updated_at :datetime</text>
<text text-anchor="start" x="909.495" y="-248.6" font-family="Times,serif" font-size="14.00">number :integer</text>
</g>
<!-- Pipeline&#45;&gt;Stage -->
<g id="edge11" class="edge"><title>Pipeline&#45;&gt;Stage</title>
<path fill="none" stroke="#4b34bc" d="M1105.85,-450.312C1104.9,-449.532 1103.95,-448.761 1103,-448 1078.66,-428.497 1067.32,-430.713 1044,-410 1040.22,-406.646 1036.48,-403.097 1032.79,-399.421"/>
<ellipse fill="none" stroke="#4b34bc" cx="1109.07" cy="-453.012" rx="4.00002" ry="4.00002"/>
<polygon fill="#4b34bc" stroke="#4b34bc" points="1032.75,-399.38 1029.01,-389.073 1029.27,-395.795 1025.78,-392.21 1025.78,-392.21 1025.78,-392.21 1029.27,-395.795 1022.55,-395.347 1032.75,-399.38 1032.75,-399.38"/>
</g>
<!-- Pipeline&#45;&gt;Member -->
<g id="edge12" class="edge"><title>Pipeline&#45;&gt;Member</title>
<path fill="none" stroke="#42dbc1" d="M1105.34,-449.248C1104.56,-448.822 1103.78,-448.405 1103,-448 1018.41,-404.127 974.092,-458.377 892,-410 883.345,-404.9 875.267,-398.406 867.859,-391.234"/>
<ellipse fill="none" stroke="#42dbc1" cx="1108.79" cy="-451.304" rx="4.00002" ry="4.00002"/>
<polygon fill="#42dbc1" stroke="#42dbc1" points="867.656,-391.025 863.902,-380.722 864.167,-387.444 860.679,-383.862 860.679,-383.862 860.679,-383.862 864.167,-387.444 857.455,-387.002 867.656,-391.025 867.656,-391.025"/>
</g>
<!-- Service -->
<g id="node9" class="node"><title>Service</title>
<path fill="none" stroke="black" d="M1064.78,-225C1064.78,-225 1207.22,-225 1207.22,-225 1213.22,-225 1219.22,-231 1219.22,-237 1219.22,-237 1219.22,-397 1219.22,-397 1219.22,-403 1213.22,-409 1207.22,-409 1207.22,-409 1064.78,-409 1064.78,-409 1058.78,-409 1052.78,-403 1052.78,-397 1052.78,-397 1052.78,-237 1052.78,-237 1052.78,-231 1058.78,-225 1064.78,-225"/>
<text text-anchor="middle" x="1136" y="-391" font-family="Times,serif" font-size="14.00">Service</text>
<polyline fill="none" stroke="black" points="1052.78,-384.2 1219.22,-384.2 "/>
<text text-anchor="start" x="1060.78" y="-366.2" font-family="Times,serif" font-size="14.00">id :integer</text>
<text text-anchor="start" x="1060.78" y="-349.4" font-family="Times,serif" font-size="14.00">name :string</text>
<text text-anchor="start" x="1060.78" y="-332.6" font-family="Times,serif" font-size="14.00">url :string</text>
<text text-anchor="start" x="1060.78" y="-315.8" font-family="Times,serif" font-size="14.00">verb :string</text>
<text text-anchor="start" x="1060.78" y="-299" font-family="Times,serif" font-size="14.00">include_basic :boolean</text>
<text text-anchor="start" x="1060.78" y="-282.2" font-family="Times,serif" font-size="14.00">include_data :boolean</text>
<text text-anchor="start" x="1060.78" y="-265.4" font-family="Times,serif" font-size="14.00">include_extended :boolean</text>
<text text-anchor="start" x="1060.78" y="-248.6" font-family="Times,serif" font-size="14.00">created_at :datetime</text>
<text text-anchor="start" x="1060.78" y="-231.8" font-family="Times,serif" font-size="14.00">updated_at :datetime</text>
</g>
<!-- Trigger -->
<g id="node12" class="node"><title>Trigger</title>
<path fill="none" stroke="black" d="M1006.49,-26.2C1006.49,-26.2 1115.51,-26.2 1115.51,-26.2 1121.51,-26.2 1127.51,-32.2 1127.51,-38.2 1127.51,-38.2 1127.51,-147.8 1127.51,-147.8 1127.51,-153.8 1121.51,-159.8 1115.51,-159.8 1115.51,-159.8 1006.49,-159.8 1006.49,-159.8 1000.49,-159.8 994.495,-153.8 994.495,-147.8 994.495,-147.8 994.495,-38.2 994.495,-38.2 994.495,-32.2 1000.49,-26.2 1006.49,-26.2"/>
<text text-anchor="middle" x="1061" y="-141.8" font-family="Times,serif" font-size="14.00">Trigger</text>
<polyline fill="none" stroke="black" points="994.495,-135 1127.51,-135 "/>
<text text-anchor="start" x="1002.49" y="-117" font-family="Times,serif" font-size="14.00">id :integer</text>
<text text-anchor="start" x="1002.49" y="-100.2" font-family="Times,serif" font-size="14.00">stage_id :integer</text>
<text text-anchor="start" x="1002.49" y="-83.4" font-family="Times,serif" font-size="14.00">condition :string</text>
<text text-anchor="start" x="1002.49" y="-66.6" font-family="Times,serif" font-size="14.00">created_at :datetime</text>
<text text-anchor="start" x="1002.49" y="-49.8" font-family="Times,serif" font-size="14.00">updated_at :datetime</text>
<text text-anchor="start" x="1002.49" y="-33" font-family="Times,serif" font-size="14.00">service_id :integer</text>
</g>
<!-- Service&#45;&gt;Trigger -->
<g id="edge13" class="edge"><title>Service&#45;&gt;Trigger</title>
<path fill="none" stroke="#7e3981" d="M1102.57,-217.054C1097.2,-201.148 1091.71,-184.909 1086.56,-169.663"/>
<ellipse fill="none" stroke="#7e3981" cx="1103.89" cy="-220.953" rx="4.00001" ry="4.00001"/>
<polygon fill="#7e3981" stroke="#7e3981" points="1086.43,-169.275 1087.49,-158.361 1084.83,-164.538 1083.23,-159.801 1083.23,-159.801 1083.23,-159.801 1084.83,-164.538 1078.97,-161.241 1086.43,-169.275 1086.43,-169.275"/>
</g>
<!-- Stage&#45;&gt;Status -->
<g id="edge14" class="edge"><title>Stage&#45;&gt;Status</title>
<path fill="none" stroke="#dbf119" d="M912.835,-234.897C903.725,-221.502 894.187,-207.48 884.809,-193.693"/>
<ellipse fill="none" stroke="#dbf119" cx="915.26" cy="-238.461" rx="4.00002" ry="4.00002"/>
<polygon fill="#dbf119" stroke="#dbf119" points="884.62,-193.415 882.717,-182.616 881.808,-189.281 878.996,-185.147 878.996,-185.147 878.996,-185.147 881.808,-189.281 875.275,-187.678 884.62,-193.415 884.62,-193.415"/>
</g>
<!-- Stage&#45;&gt;Trigger -->
<g id="edge15" class="edge"><title>Stage&#45;&gt;Trigger</title>
<path fill="none" stroke="#3b5213" d="M1002.25,-234.247C1011.14,-213.029 1020.67,-190.276 1029.41,-169.402"/>
<ellipse fill="none" stroke="#3b5213" cx="1000.64" cy="-238.079" rx="4.00002" ry="4.00002"/>
<polygon fill="#3b5213" stroke="#3b5213" points="1029.51,-169.179 1037.52,-161.695 1031.44,-164.568 1033.37,-159.956 1033.37,-159.956 1033.37,-159.956 1031.44,-164.568 1029.22,-158.217 1029.51,-169.179 1029.51,-169.179"/>
</g>
<!-- Stage&#45;&gt;Notification -->
<g id="edge16" class="edge"><title>Stage&#45;&gt;Notification</title>
<path fill="none" stroke="#a7bf31" d="M908.408,-236.064C903.19,-231.596 897.71,-227.507 892,-224 826.398,-183.71 788.983,-225.662 723,-186 717.671,-182.797 712.521,-179.109 707.578,-175.09"/>
<ellipse fill="none" stroke="#a7bf31" cx="911.438" cy="-238.795" rx="4.00002" ry="4.00002"/>
<polygon fill="#a7bf31" stroke="#a7bf31" points="707.551,-175.066 702.931,-165.121 703.769,-171.795 699.987,-168.524 699.987,-168.524 699.987,-168.524 703.769,-171.795 697.043,-171.928 707.551,-175.066 707.551,-175.066"/>
</g>
<!-- User -->
<g id="node13" class="node"><title>User</title>
<path fill="none" stroke="black" d="M461.722,-844.6C461.722,-844.6 642.278,-844.6 642.278,-844.6 648.278,-844.6 654.278,-850.6 654.278,-856.6 654.278,-856.6 654.278,-1201.4 654.278,-1201.4 654.278,-1207.4 648.278,-1213.4 642.278,-1213.4 642.278,-1213.4 461.722,-1213.4 461.722,-1213.4 455.722,-1213.4 449.722,-1207.4 449.722,-1201.4 449.722,-1201.4 449.722,-856.6 449.722,-856.6 449.722,-850.6 455.722,-844.6 461.722,-844.6"/>
<text text-anchor="middle" x="552" y="-1195.4" font-family="Times,serif" font-size="14.00">User</text>
<polyline fill="none" stroke="black" points="449.722,-1188.6 654.278,-1188.6 "/>
<text text-anchor="start" x="457.722" y="-1170.6" font-family="Times,serif" font-size="14.00">id :integer</text>
<text text-anchor="start" x="457.722" y="-1153.8" font-family="Times,serif" font-size="14.00">email :string</text>
<text text-anchor="start" x="457.722" y="-1137" font-family="Times,serif" font-size="14.00">encrypted_password :string</text>
<text text-anchor="start" x="457.722" y="-1120.2" font-family="Times,serif" font-size="14.00">reset_password_token :string</text>
<text text-anchor="start" x="457.722" y="-1103.4" font-family="Times,serif" font-size="14.00">reset_password_sent_at :datetime</text>
<text text-anchor="start" x="457.722" y="-1086.6" font-family="Times,serif" font-size="14.00">remember_created_at :datetime</text>
<text text-anchor="start" x="457.722" y="-1069.8" font-family="Times,serif" font-size="14.00">sign_in_count :integer</text>
<text text-anchor="start" x="457.722" y="-1053" font-family="Times,serif" font-size="14.00">current_sign_in_at :datetime</text>
<text text-anchor="start" x="457.722" y="-1036.2" font-family="Times,serif" font-size="14.00">last_sign_in_at :datetime</text>
<text text-anchor="start" x="457.722" y="-1019.4" font-family="Times,serif" font-size="14.00">current_sign_in_ip :string</text>
<text text-anchor="start" x="457.722" y="-1002.6" font-family="Times,serif" font-size="14.00">last_sign_in_ip :string</text>
<text text-anchor="start" x="457.722" y="-985.8" font-family="Times,serif" font-size="14.00">confirmation_token :string</text>
<text text-anchor="start" x="457.722" y="-969" font-family="Times,serif" font-size="14.00">confirmed_at :datetime</text>
<text text-anchor="start" x="457.722" y="-952.2" font-family="Times,serif" font-size="14.00">confirmation_sent_at :datetime</text>
<text text-anchor="start" x="457.722" y="-935.4" font-family="Times,serif" font-size="14.00">unconfirmed_email :string</text>
<text text-anchor="start" x="457.722" y="-918.6" font-family="Times,serif" font-size="14.00">authentication_token :string</text>
<text text-anchor="start" x="457.722" y="-901.8" font-family="Times,serif" font-size="14.00">created_at :datetime</text>
<text text-anchor="start" x="457.722" y="-885" font-family="Times,serif" font-size="14.00">updated_at :datetime</text>
<text text-anchor="start" x="457.722" y="-868.2" font-family="Times,serif" font-size="14.00">approved :boolean</text>
<text text-anchor="start" x="457.722" y="-851.4" font-family="Times,serif" font-size="14.00">role :string</text>
</g>
<!-- User&#45;&gt;Item -->
<g id="edge17" class="edge"><title>User&#45;&gt;Item</title>
<path fill="none" stroke="#0dbd89" d="M659.92,-908.402C689.002,-876.173 719.789,-842.055 746.512,-812.44"/>
<ellipse fill="none" stroke="#0dbd89" cx="657.146" cy="-911.476" rx="4.00002" ry="4.00002"/>
<polygon fill="#0dbd89" stroke="#0dbd89" points="746.515,-812.436 756.555,-808.027 749.865,-808.724 753.215,-805.012 753.215,-805.012 753.215,-805.012 749.865,-808.724 749.874,-801.998 746.515,-812.436 746.515,-812.436"/>
</g>
<!-- User&#45;&gt;Pipeline -->
<g id="edge18" class="edge"><title>User&#45;&gt;Pipeline</title>
<path fill="none" stroke="#dd3ac7" d="M661.525,-971.615C783.285,-904.667 980.004,-783.316 1111,-636 1118.74,-627.292 1126.13,-617.589 1132.98,-607.644"/>
<ellipse fill="none" stroke="#dd3ac7" cx="657.847" cy="-973.629" rx="4.00002" ry="4.00002"/>
<polygon fill="#dd3ac7" stroke="#dd3ac7" points="1133.04,-607.557 1142.35,-601.757 1135.82,-603.404 1138.61,-599.251 1138.61,-599.251 1138.61,-599.251 1135.82,-603.404 1134.87,-596.745 1133.04,-607.557 1133.04,-607.557"/>
</g>
<!-- User&#45;&gt;Status -->
<g id="edge19" class="edge"><title>User&#45;&gt;Status</title>
<path fill="none" stroke="#db93b5" d="M546.675,-835.923C544.958,-695.364 547.946,-517.562 571,-448 602.674,-352.428 668.994,-259.543 724.799,-192.914"/>
<ellipse fill="none" stroke="#db93b5" cx="546.731" cy="-840.278" rx="4" ry="4"/>
<polygon fill="#db93b5" stroke="#db93b5" points="725.098,-192.56 734.988,-187.823 728.324,-188.74 731.55,-184.92 731.55,-184.92 731.55,-184.92 728.324,-188.74 728.112,-182.017 725.098,-192.56 725.098,-192.56"/>
</g>
<!-- User&#45;&gt;Favorite -->
<g id="edge20" class="edge"><title>User&#45;&gt;Favorite</title>
<path fill="none" stroke="#b2d211" d="M488.237,-836.617C480.911,-801.857 476,-765.637 476,-731 476,-731 476,-731 476,-316 476,-264.09 479.037,-205.435 481.92,-161.458"/>
<ellipse fill="none" stroke="#b2d211" cx="489.093" cy="-840.568" rx="4.00001" ry="4.00001"/>
<polygon fill="#b2d211" stroke="#b2d211" points="481.921,-161.436 487.079,-151.759 482.255,-156.447 482.589,-151.458 482.589,-151.458 482.589,-151.458 482.255,-156.447 478.099,-151.158 481.921,-161.436 481.921,-161.436"/>
</g>
<!-- User&#45;&gt;Notification -->
<g id="edge21" class="edge"><title>User&#45;&gt;Notification</title>
<path fill="none" stroke="#ea7985" d="M520.19,-835.941C516.488,-801.116 514,-765.048 514,-731 514,-731 514,-731 514,-316 514,-263.714 524.518,-249.656 550,-204 553.83,-197.138 561.402,-187.061 570.658,-175.749"/>
<ellipse fill="none" stroke="#ea7985" cx="520.668" cy="-840.314" rx="4" ry="4"/>
<polygon fill="#ea7985" stroke="#ea7985" points="570.918,-175.436 580.771,-170.621 574.114,-171.591 577.31,-167.745 577.31,-167.745 577.31,-167.745 574.114,-171.591 573.849,-164.869 570.918,-175.436 570.918,-175.436"/>
</g>
</g>
</svg>
